<svg width="24" height="24" viewBox="0 0 24 24" fill="none" xmlns="http://www.w3.org/2000/svg">
<mask id="mask0_314_90" style="mask-type:alpha" maskUnits="userSpaceOnUse" x="0" y="0" width="24" height="24">
<rect width="24" height="24" fill="#D9D9D9"/>
</mask>
<g mask="url(#mask0_314_90)">
<path d="M4.25159 18.875V17.375H6.25159V10.125C6.25159 8.75832 6.67259 7.55399 7.51459 6.51199C8.35592 5.47065 9.43492 4.79999 10.7516 4.49999V3.79999C10.7516 3.44999 10.8726 3.15399 11.1146 2.91199C11.3559 2.67065 11.6516 2.54999 12.0016 2.54999C12.3516 2.54999 12.6473 2.67065 12.8886 2.91199C13.1306 3.15399 13.2516 3.44999 13.2516 3.79999V4.49999C14.5683 4.79999 15.6476 5.47065 16.4896 6.51199C17.3309 7.55399 17.7516 8.75832 17.7516 10.125V17.375H19.7516V18.875H4.25159ZM12.0016 21.8C11.5016 21.8 11.0766 21.625 10.7266 21.275C10.3766 20.925 10.2016 20.5 10.2016 20H13.8016C13.8016 20.5 13.6266 20.925 13.2766 21.275C12.9266 21.625 12.5016 21.8 12.0016 21.8ZM7.75159 17.375H16.2516V10.125C16.2516 8.94165 15.8389 7.93732 15.0136 7.11199C14.1889 6.28732 13.1849 5.87499 12.0016 5.87499C10.8183 5.87499 9.81425 6.28732 8.98959 7.11199C8.16425 7.93732 7.75159 8.94165 7.75159 10.125V17.375Z" fill="white"/>
</g>
</svg>
    