<svg width="24" height="24" viewBox="0 0 24 24" fill="none" xmlns="http://www.w3.org/2000/svg">
<mask id="mask0_314_50" style="mask-type:alpha" maskUnits="userSpaceOnUse" x="0" y="0" width="24" height="24">
<rect width="24" height="24" fill="#D9D9D9"/>
</mask>
<g mask="url(#mask0_314_50)">
<path d="M11.4231 18.6256H12.923V17.6256H14.1731C14.3859 17.6256 14.5641 17.5538 14.7077 17.4102C14.8513 17.2667 14.923 17.0885 14.923 16.8756V13.8756C14.923 13.6628 14.8513 13.4846 14.7077 13.341C14.5641 13.1974 14.3859 13.1256 14.1731 13.1256H10.923V11.6256H14.923V10.1256H12.923V9.12565H11.4231V10.1256H10.1731C9.96026 10.1256 9.78205 10.1974 9.63845 10.341C9.49487 10.4846 9.42308 10.6628 9.42308 10.8756V13.8756C9.42308 14.0885 9.49487 14.2667 9.63845 14.4102C9.78205 14.5538 9.96026 14.6256 10.1731 14.6256H13.4231V16.1256H9.42308V17.6256H11.4231V18.6256ZM6.3077 21.5006C5.80257 21.5006 5.375 21.3256 5.025 20.9756C4.675 20.6256 4.5 20.1981 4.5 19.6929V4.30837C4.5 3.80324 4.675 3.37567 5.025 3.02567C5.375 2.67567 5.80257 2.50067 6.3077 2.50067H14.25L19.5 7.75062V19.6929C19.5 20.1981 19.325 20.6256 18.975 20.9756C18.625 21.3256 18.1974 21.5006 17.6922 21.5006H6.3077ZM13.5 7.88525V4.00065H6.3077C6.23077 4.00065 6.16024 4.0327 6.09612 4.0968C6.03202 4.16091 5.99997 4.23144 5.99997 4.30837V19.6929C5.99997 19.7699 6.03202 19.8404 6.09612 19.9045C6.16024 19.9686 6.23077 20.0006 6.3077 20.0006H17.6922C17.7692 20.0006 17.8397 19.9686 17.9038 19.9045C17.9679 19.8404 18 19.7699 18 19.6929V7.88525H13.5Z" fill="white"/>
</g>
</svg>
