<svg width="25" height="25" viewBox="0 0 25 25" fill="none" xmlns="http://www.w3.org/2000/svg">
<mask id="mask0_314_100" style="mask-type:alpha" maskUnits="userSpaceOnUse" x="0" y="0" width="25" height="25">
<rect x="0.0898438" y="0.0761719" width="24" height="24" fill="#D9D9D9"/>
</mask>
<g mask="url(#mask0_314_100)">
<path d="M12.0898 19.3454C11.6774 19.3454 11.3242 19.1985 11.0305 18.9048C10.7367 18.611 10.5899 18.2579 10.5899 17.8454C10.5899 17.4329 10.7367 17.0798 11.0305 16.7861C11.3242 16.4923 11.6774 16.3454 12.0898 16.3454C12.5023 16.3454 12.8554 16.4923 13.1492 16.7861C13.4429 17.0798 13.5898 17.4329 13.5898 17.8454C13.5898 18.2579 13.4429 18.611 13.1492 18.9048C12.8554 19.1985 12.5023 19.3454 12.0898 19.3454ZM12.0898 13.5762C11.6774 13.5762 11.3242 13.4293 11.0305 13.1355C10.7367 12.8418 10.5899 12.4887 10.5899 12.0762C10.5899 11.6637 10.7367 11.3106 11.0305 11.0168C11.3242 10.7231 11.6774 10.5762 12.0898 10.5762C12.5023 10.5762 12.8554 10.7231 13.1492 11.0168C13.4429 11.3106 13.5898 11.6637 13.5898 12.0762C13.5898 12.4887 13.4429 12.8418 13.1492 13.1355C12.8554 13.4293 12.5023 13.5762 12.0898 13.5762ZM12.0898 7.80693C11.6774 7.80693 11.3242 7.66006 11.0305 7.36631C10.7367 7.07257 10.5899 6.71946 10.5899 6.30696C10.5899 5.89447 10.7367 5.54136 11.0305 5.24761C11.3242 4.95387 11.6774 4.80701 12.0898 4.80701C12.5023 4.80701 12.8554 4.95387 13.1492 5.24761C13.4429 5.54136 13.5898 5.89447 13.5898 6.30696C13.5898 6.71946 13.4429 7.07257 13.1492 7.36631C12.8554 7.66006 12.5023 7.80693 12.0898 7.80693Z" fill="#1C1B1F"/>
</g>
<mask id="mask1_314_100" style="mask-type:alpha" maskUnits="userSpaceOnUse" x="0" y="0" width="24" height="24">
<rect width="24" height="24" fill="#D9D9D9"/>
</mask>
<g mask="url(#mask1_314_100)">
<path d="M12 19.2692C11.5875 19.2692 11.2344 19.1223 10.9407 18.8286C10.6469 18.5348 10.5 18.1817 10.5 17.7692C10.5 17.3567 10.6469 17.0036 10.9407 16.7099C11.2344 16.4161 11.5875 16.2693 12 16.2693C12.4125 16.2693 12.7656 16.4161 13.0594 16.7099C13.3531 17.0036 13.5 17.3567 13.5 17.7692C13.5 18.1817 13.3531 18.5348 13.0594 18.8286C12.7656 19.1223 12.4125 19.2692 12 19.2692ZM12 13.5C11.5875 13.5 11.2344 13.3531 10.9407 13.0594C10.6469 12.7656 10.5 12.4125 10.5 12C10.5 11.5875 10.6469 11.2344 10.9407 10.9407C11.2344 10.6469 11.5875 10.5 12 10.5C12.4125 10.5 12.7656 10.6469 13.0594 10.9407C13.3531 11.2344 13.5 11.5875 13.5 12C13.5 12.4125 13.3531 12.7656 13.0594 13.0594C12.7656 13.3531 12.4125 13.5 12 13.5ZM12 7.73076C11.5875 7.73076 11.2344 7.58389 10.9407 7.29014C10.6469 6.9964 10.5 6.64328 10.5 6.23078C10.5 5.8183 10.6469 5.46518 10.9407 5.17143C11.2344 4.8777 11.5875 4.73083 12 4.73083C12.4125 4.73083 12.7656 4.8777 13.0594 5.17143C13.3531 5.46518 13.5 5.8183 13.5 6.23078C13.5 6.64328 13.3531 6.9964 13.0594 7.29014C12.7656 7.58389 12.4125 7.73076 12 7.73076Z" fill="white"/>
</g>
</svg>
