<svg width="27" height="27" viewBox="0 0 27 27" fill="none" xmlns="http://www.w3.org/2000/svg">
<circle cx="10" cy="18" r="9" fill="url(#paint0_linear_0_367)"/>
<path d="M14.5 22C13.0447 22 11.6772 21.7237 10.3973 21.1711C9.11663 20.6184 8.00658 19.8724 7.06711 18.9329C6.12763 17.9934 5.38158 16.8834 4.82895 15.6027C4.27632 14.3228 4 12.9553 4 11.5C4 10.0447 4.27632 8.67679 4.82895 7.39616C5.38158 6.11626 6.12763 5.00658 7.06711 4.06711C8.00658 3.12763 9.11663 2.38158 10.3973 1.82895C11.6772 1.27632 13.0447 1 14.5 1C15.9553 1 17.3232 1.27632 18.6038 1.82895C19.8837 2.38158 20.9934 3.12763 21.9329 4.06711C22.8724 5.00658 23.6184 6.11626 24.1711 7.39616C24.7237 8.67679 25 10.0447 25 11.5C25 12.9553 24.7237 14.3228 24.1711 15.6027C23.6184 16.8834 22.8724 17.9934 21.9329 18.9329C20.9934 19.8724 19.8837 20.6184 18.6038 21.1711C17.3232 21.7237 15.9553 22 14.5 22Z" fill="#1A213F"/>
<mask id="mask0_0_367" style="mask-type:alpha" maskUnits="userSpaceOnUse" x="8" y="5" width="13" height="13">
<rect x="8" y="5" width="13" height="13" fill="#D9D9D9"/>
</mask>
<g mask="url(#mask0_0_367)">
<path d="M10.166 15.2943V14.2109H11.2493V10.4193C11.2493 9.66997 11.475 9.00408 11.9264 8.4216C12.3778 7.83949 12.9646 7.45816 13.6868 7.2776V6.89844C13.6868 6.67274 13.7659 6.48099 13.9241 6.32319C14.0819 6.16502 14.2737 6.08594 14.4993 6.08594C14.725 6.08594 14.9168 6.16502 15.0746 6.32319C15.2328 6.48099 15.3118 6.67274 15.3118 6.89844V7.2776C16.0341 7.45816 16.6209 7.83949 17.0723 8.4216C17.5237 9.00408 17.7493 9.66997 17.7493 10.4193V14.2109H18.8327V15.2943H10.166ZM14.4993 16.9193C14.2014 16.9193 13.9465 16.8133 13.7345 16.6013C13.5222 16.389 13.416 16.1339 13.416 15.8359H15.5827C15.5827 16.1339 15.4767 16.389 15.2647 16.6013C15.0524 16.8133 14.7973 16.9193 14.4993 16.9193Z" fill="white"/>
</g>
<defs>
<linearGradient id="paint0_linear_0_367" x1="0.510204" y1="9.9" x2="19.5911" y2="10.5501" gradientUnits="userSpaceOnUse">
<stop stop-color="#8299FF"/>
<stop offset="1" stop-color="#3752C6"/>
</linearGradient>
</defs>
</svg>
