<svg width="31" height="31" viewBox="0 0 31 31" fill="none" xmlns="http://www.w3.org/2000/svg">
<mask id="mask0_0_284" style="mask-type:alpha" maskUnits="userSpaceOnUse" x="0" y="0" width="31" height="31">
<rect width="31" height="31" fill="#D9D9D9"/>
</mask>
<g mask="url(#mask0_0_284)">
<path d="M24.543 11.6302L22.9284 8.07812L19.3763 6.46354L22.9284 4.84896L24.543 1.29688L26.1576 4.84896L29.7096 6.46354L26.1576 8.07812L24.543 11.6302ZM24.543 29.7135L22.9284 26.1615L19.3763 24.5469L22.9284 22.9323L24.543 19.3802L26.1576 22.9323L29.7096 24.5469L26.1576 26.1615L24.543 29.7135ZM11.6263 25.8385L8.39713 18.7344L1.29297 15.5052L8.39713 12.276L11.6263 5.17187L14.8555 12.276L21.9596 15.5052L14.8555 18.7344L11.6263 25.8385Z" fill="#FFEAEE" fill-opacity="0.5"/>
</g>
</svg>
