<svg width="36" height="37" viewBox="0 0 36 37" fill="none" xmlns="http://www.w3.org/2000/svg">
<circle cx="18" cy="18.0762" r="18" fill="#D36A80"/>
<path d="M18.8146 11.258H21.2976V20.9739C21.2931 21.8645 21.1042 22.6315 20.7308 23.2747C20.3575 23.9134 19.8357 24.406 19.1655 24.7523C18.4998 25.0942 17.7238 25.2651 16.8377 25.2651C16.0281 25.2651 15.2994 25.1212 14.6516 24.8333C14.0084 24.5409 13.4979 24.1091 13.12 23.5378C12.7422 22.9666 12.5533 22.2559 12.5533 21.4057H15.043C15.0475 21.7791 15.1284 22.1007 15.2859 22.3706C15.4478 22.6404 15.6705 22.8474 15.9538 22.9913C16.2372 23.1352 16.5633 23.2072 16.9322 23.2072C17.3325 23.2072 17.6721 23.124 17.951 22.9576C18.2299 22.7866 18.4413 22.5347 18.5852 22.2019C18.7337 21.869 18.8101 21.4597 18.8146 20.9739V11.258Z" fill="white"/>
</svg>
