<svg width="159" height="30" viewBox="0 0 159 30" fill="none" xmlns="http://www.w3.org/2000/svg">
<mask id="mask0_281_9" style="mask-type:alpha" maskUnits="userSpaceOnUse" x="0" y="1" width="27" height="27">
<rect y="1.11111" width="26.6667" height="26.6667" fill="#D9D9D9"/>
</mask>
<g mask="url(#mask0_281_9)">
<path d="M2.67188 23.1105C2.11632 23.1105 1.6441 22.916 1.25521 22.5271C0.86632 22.1382 0.671875 21.666 0.671875 21.1105C0.671875 20.5549 0.86632 20.0827 1.25521 19.6938C1.6441 19.3049 2.11632 19.1105 2.67188 19.1105C3.22743 19.1105 3.69965 19.3049 4.08854 19.6938C4.47743 20.0827 4.67188 20.5549 4.67188 21.1105C4.67188 21.666 4.47743 22.1382 4.08854 22.5271C3.69965 22.916 3.22743 23.1105 2.67188 23.1105ZM11.5608 23.1105C11.0052 23.1105 10.533 22.916 10.1441 22.5271C9.75521 22.1382 9.56076 21.666 9.56076 21.1105C9.56076 20.5549 9.75521 20.0827 10.1441 19.6938C10.533 19.3049 11.0052 19.1105 11.5608 19.1105C12.1163 19.1105 12.5885 19.3049 12.9774 19.6938C13.3663 20.0827 13.5608 20.5549 13.5608 21.1105C13.5608 21.666 13.3663 22.1382 12.9774 22.5271C12.5885 22.916 12.1163 23.1105 11.5608 23.1105ZM7.11632 18.666C6.56076 18.666 6.08854 18.4716 5.69965 18.0827C5.31076 17.6938 5.11632 17.2216 5.11632 16.666C5.11632 16.1105 5.31076 15.6382 5.69965 15.2494C6.08854 14.8605 6.56076 14.666 7.11632 14.666C7.67188 14.666 8.1441 14.8605 8.53299 15.2494C8.92187 15.6382 9.11632 16.1105 9.11632 16.666C9.11632 17.2216 8.92187 17.6938 8.53299 18.0827C8.1441 18.4716 7.67188 18.666 7.11632 18.666ZM16.0052 18.666C15.4497 18.666 14.9774 18.4716 14.5885 18.0827C14.1997 17.6938 14.0052 17.2216 14.0052 16.666C14.0052 16.1105 14.1997 15.6382 14.5885 15.2494C14.9774 14.8605 15.4497 14.666 16.0052 14.666C16.5608 14.666 17.033 14.8605 17.4219 15.2494C17.8108 15.6382 18.0052 16.1105 18.0052 16.666C18.0052 17.2216 17.8108 17.6938 17.4219 18.0827C17.033 18.4716 16.5608 18.666 16.0052 18.666ZM2.67188 14.2216C2.11632 14.2216 1.6441 14.0271 1.25521 13.6382C0.86632 13.2494 0.671875 12.7771 0.671875 12.2216C0.671875 11.666 0.86632 11.1938 1.25521 10.8049C1.6441 10.416 2.11632 10.2216 2.67188 10.2216C3.22743 10.2216 3.69965 10.416 4.08854 10.8049C4.47743 11.1938 4.67188 11.666 4.67188 12.2216C4.67188 12.7771 4.47743 13.2494 4.08854 13.6382C3.69965 14.0271 3.22743 14.2216 2.67188 14.2216ZM11.5608 14.2216C11.0052 14.2216 10.533 14.0271 10.1441 13.6382C9.75521 13.2494 9.56076 12.7771 9.56076 12.2216C9.56076 11.666 9.75521 11.1938 10.1441 10.8049C10.533 10.416 11.0052 10.2216 11.5608 10.2216C12.1163 10.2216 12.5885 10.416 12.9774 10.8049C13.3663 11.1938 13.5608 11.666 13.5608 12.2216C13.5608 12.7771 13.3663 13.2494 12.9774 13.6382C12.5885 14.0271 12.1163 14.2216 11.5608 14.2216ZM7.11632 9.77713C6.56076 9.77713 6.08854 9.58269 5.69965 9.1938C5.31076 8.80491 5.11632 8.33269 5.11632 7.77713C5.11632 7.22157 5.31076 6.74935 5.69965 6.36046C6.08854 5.97157 6.56076 5.77713 7.11632 5.77713C7.67188 5.77713 8.1441 5.97157 8.53299 6.36046C8.92187 6.74935 9.11632 7.22157 9.11632 7.77713C9.11632 8.33269 8.92187 8.80491 8.53299 9.1938C8.1441 9.58269 7.67188 9.77713 7.11632 9.77713ZM16.0052 9.77713C15.4497 9.77713 14.9774 9.58269 14.5885 9.1938C14.1997 8.80491 14.0052 8.33269 14.0052 7.77713C14.0052 7.22157 14.1997 6.74935 14.5885 6.36046C14.9774 5.97157 15.4497 5.77713 16.0052 5.77713C16.5608 5.77713 17.033 5.97157 17.4219 6.36046C17.8108 6.74935 18.0052 7.22157 18.0052 7.77713C18.0052 8.33269 17.8108 8.80491 17.4219 9.1938C17.033 9.58269 16.5608 9.77713 16.0052 9.77713Z" fill="white"/>
</g>
<path d="M32.087 22V7.45455H41.5472V9.66335H34.7219V13.6122H41.0572V15.821H34.7219V19.7912H41.604V22H32.087ZM50.734 13.669V15.7855H44.1857V13.669H50.734ZM58.4808 22H53.5518V7.45455H58.5803C60.0244 7.45455 61.2649 7.74574 62.3018 8.32813C63.3435 8.90578 64.1437 9.73674 64.7024 10.821C65.2611 11.9053 65.5405 13.2027 65.5405 14.7131C65.5405 16.2282 65.2588 17.5303 64.6953 18.6193C64.1366 19.7083 63.3293 20.544 62.2734 21.1264C61.2223 21.7088 59.9581 22 58.4808 22ZM56.1868 19.7202H58.353C59.3662 19.7202 60.2114 19.5355 60.8885 19.1662C61.5656 18.7921 62.0746 18.2358 62.4155 17.4972C62.7564 16.7538 62.9268 15.8258 62.9268 14.7131C62.9268 13.6004 62.7564 12.6771 62.4155 11.9432C62.0746 11.2045 61.5703 10.6529 60.9027 10.2884C60.2398 9.91904 59.416 9.73438 58.4311 9.73438H56.1868V19.7202ZM71.0696 22.2202C70.3783 22.2202 69.7557 22.0971 69.2017 21.8509C68.6525 21.5999 68.2169 21.2306 67.8949 20.7429C67.5776 20.2552 67.419 19.6539 67.419 18.9389C67.419 18.3234 67.5327 17.8144 67.7599 17.4119C67.9872 17.0095 68.2973 16.6875 68.6903 16.446C69.0833 16.2045 69.526 16.0223 70.0185 15.8991C70.5156 15.7713 71.0294 15.679 71.5597 15.6222C72.1989 15.5559 72.7173 15.4967 73.1151 15.4446C73.5128 15.3878 73.8016 15.3026 73.9815 15.1889C74.1662 15.0705 74.2585 14.8883 74.2585 14.642V14.5994C74.2585 14.0644 74.0999 13.6501 73.7827 13.3565C73.4654 13.063 73.0085 12.9162 72.4119 12.9162C71.7822 12.9162 71.2827 13.0535 70.9133 13.3281C70.5488 13.6027 70.3026 13.9271 70.1747 14.3011L67.7741 13.9602C67.9635 13.2973 68.276 12.7434 68.7116 12.2983C69.1472 11.8485 69.6799 11.5123 70.3097 11.2898C70.9394 11.0625 71.6354 10.9489 72.3977 10.9489C72.9233 10.9489 73.4465 11.0104 73.9673 11.1335C74.4882 11.2566 74.964 11.4602 75.3949 11.7443C75.8258 12.0237 76.1714 12.4048 76.4318 12.8878C76.697 13.3707 76.8295 13.9744 76.8295 14.6989V22H74.358V20.5014H74.2727C74.1165 20.8045 73.8963 21.0885 73.6122 21.3537C73.3329 21.6141 72.9801 21.8248 72.554 21.9858C72.1326 22.142 71.6378 22.2202 71.0696 22.2202ZM71.7372 20.331C72.2533 20.331 72.7008 20.2292 73.0795 20.0256C73.4583 19.8172 73.7495 19.5426 73.9531 19.2017C74.1615 18.8608 74.2656 18.4891 74.2656 18.0866V16.8011C74.1851 16.8674 74.0478 16.929 73.8537 16.9858C73.6643 17.0426 73.4512 17.0923 73.2145 17.1349C72.9777 17.1776 72.7434 17.2154 72.5114 17.2486C72.2794 17.2817 72.0781 17.3101 71.9077 17.3338C71.5241 17.3859 71.1809 17.4711 70.8778 17.5895C70.5748 17.7079 70.3357 17.8736 70.1605 18.0866C69.9853 18.295 69.8977 18.5649 69.8977 18.8963C69.8977 19.3698 70.0705 19.7273 70.4162 19.9688C70.7618 20.2102 71.2022 20.331 71.7372 20.331ZM88.0369 13.9744L85.6932 14.2301C85.6269 13.9934 85.5109 13.7708 85.3452 13.5625C85.1842 13.3542 84.9664 13.1861 84.6918 13.0582C84.4171 12.9304 84.081 12.8665 83.6832 12.8665C83.1482 12.8665 82.6984 12.9825 82.3338 13.2145C81.974 13.4465 81.7964 13.7472 81.8011 14.1165C81.7964 14.4337 81.9124 14.6918 82.1491 14.8906C82.3906 15.0895 82.7883 15.2528 83.3423 15.3807L85.2031 15.7784C86.2353 16.0009 87.0024 16.3537 87.5043 16.8366C88.0109 17.3196 88.2666 17.9517 88.2713 18.733C88.2666 19.4195 88.0653 20.0256 87.6676 20.5511C87.2746 21.072 86.7277 21.4792 86.027 21.7727C85.3262 22.0663 84.5213 22.2131 83.6122 22.2131C82.277 22.2131 81.2022 21.9337 80.3878 21.375C79.5734 20.8116 79.0881 20.0279 78.9318 19.0241L81.4389 18.7827C81.5526 19.2751 81.794 19.6468 82.1633 19.8977C82.5327 20.1487 83.0133 20.2741 83.6051 20.2741C84.2159 20.2741 84.706 20.1487 85.0753 19.8977C85.4493 19.6468 85.6364 19.3366 85.6364 18.9673C85.6364 18.6548 85.5156 18.3968 85.2741 18.1932C85.0374 17.9896 84.6681 17.8333 84.1662 17.7244L82.3054 17.3338C81.259 17.116 80.4848 16.7491 79.983 16.233C79.4811 15.7121 79.2325 15.054 79.2372 14.2585C79.2325 13.5862 79.4148 13.0038 79.7841 12.5114C80.1581 12.0142 80.6766 11.6307 81.3395 11.3608C82.0071 11.0862 82.7765 10.9489 83.6477 10.9489C84.9261 10.9489 85.9323 11.2211 86.6662 11.7656C87.4048 12.3101 87.8617 13.0464 88.0369 13.9744ZM92.9624 15.608V22H90.3913V7.45455H92.9055V12.9446H93.0334C93.2891 12.3291 93.6844 11.8438 94.2195 11.4886C94.7592 11.1288 95.4458 10.9489 96.2791 10.9489C97.0367 10.9489 97.6972 11.1075 98.2606 11.4247C98.8241 11.742 99.2597 12.206 99.5675 12.8168C99.88 13.4276 100.036 14.1733 100.036 15.054V22H97.4652V15.4517C97.4652 14.7178 97.2758 14.1473 96.897 13.7401C96.523 13.3281 95.9974 13.1222 95.3203 13.1222C94.8658 13.1222 94.4586 13.2216 94.0987 13.4205C93.7436 13.6146 93.4642 13.8963 93.2606 14.2656C93.0618 14.6349 92.9624 15.0824 92.9624 15.608ZM102.771 22V7.45455H105.342V12.8949H105.448C105.581 12.6297 105.768 12.348 106.009 12.0497C106.251 11.7467 106.577 11.4886 106.989 11.2756C107.401 11.0578 107.927 10.9489 108.566 10.9489C109.409 10.9489 110.169 11.1643 110.846 11.5952C111.528 12.0213 112.067 12.6534 112.465 13.4915C112.868 14.3248 113.069 15.3475 113.069 16.5597C113.069 17.7576 112.872 18.7756 112.479 19.6136C112.086 20.4517 111.551 21.0909 110.874 21.5313C110.197 21.9716 109.43 22.1918 108.573 22.1918C107.948 22.1918 107.43 22.0876 107.018 21.8793C106.606 21.6709 106.274 21.42 106.023 21.1264C105.777 20.8281 105.585 20.5464 105.448 20.2813H105.299V22H102.771ZM105.292 16.5455C105.292 17.2509 105.391 17.8688 105.59 18.3991C105.794 18.9295 106.085 19.3438 106.464 19.642C106.847 19.9356 107.311 20.0824 107.856 20.0824C108.424 20.0824 108.9 19.9309 109.283 19.6278C109.667 19.3201 109.956 18.901 110.15 18.3707C110.349 17.8357 110.448 17.2273 110.448 16.5455C110.448 15.8684 110.351 15.267 110.157 14.7415C109.963 14.2159 109.674 13.804 109.29 13.5057C108.907 13.2074 108.429 13.0582 107.856 13.0582C107.307 13.0582 106.84 13.2027 106.457 13.4915C106.073 13.7803 105.782 14.1851 105.583 14.706C105.389 15.2268 105.292 15.84 105.292 16.5455ZM120.013 22.2131C118.948 22.2131 118.024 21.9787 117.243 21.5099C116.462 21.0412 115.856 20.3854 115.425 19.5426C114.999 18.6998 114.786 17.715 114.786 16.5881C114.786 15.4612 114.999 14.474 115.425 13.6264C115.856 12.7789 116.462 12.1207 117.243 11.652C118.024 11.1832 118.948 10.9489 120.013 10.9489C121.078 10.9489 122.002 11.1832 122.783 11.652C123.564 12.1207 124.168 12.7789 124.594 13.6264C125.025 14.474 125.24 15.4612 125.24 16.5881C125.24 17.715 125.025 18.6998 124.594 19.5426C124.168 20.3854 123.564 21.0412 122.783 21.5099C122.002 21.9787 121.078 22.2131 120.013 22.2131ZM120.027 20.1534C120.605 20.1534 121.088 19.9948 121.476 19.6776C121.864 19.3556 122.153 18.9247 122.343 18.3849C122.537 17.8452 122.634 17.2438 122.634 16.581C122.634 15.9134 122.537 15.3097 122.343 14.7699C122.153 14.2254 121.864 13.7921 121.476 13.4702C121.088 13.1482 120.605 12.9872 120.027 12.9872C119.435 12.9872 118.943 13.1482 118.55 13.4702C118.162 13.7921 117.871 14.2254 117.676 14.7699C117.487 15.3097 117.392 15.9134 117.392 16.581C117.392 17.2438 117.487 17.8452 117.676 18.3849C117.871 18.9247 118.162 19.3556 118.55 19.6776C118.943 19.9948 119.435 20.1534 120.027 20.1534ZM130.562 22.2202C129.87 22.2202 129.248 22.0971 128.694 21.8509C128.145 21.5999 127.709 21.2306 127.387 20.7429C127.07 20.2552 126.911 19.6539 126.911 18.9389C126.911 18.3234 127.025 17.8144 127.252 17.4119C127.479 17.0095 127.79 16.6875 128.183 16.446C128.576 16.2045 129.018 16.0223 129.511 15.8991C130.008 15.7713 130.522 15.679 131.052 15.6222C131.691 15.5559 132.21 15.4967 132.607 15.4446C133.005 15.3878 133.294 15.3026 133.474 15.1889C133.658 15.0705 133.751 14.8883 133.751 14.642V14.5994C133.751 14.0644 133.592 13.6501 133.275 13.3565C132.958 13.063 132.501 12.9162 131.904 12.9162C131.274 12.9162 130.775 13.0535 130.406 13.3281C130.041 13.6027 129.795 13.9271 129.667 14.3011L127.266 13.9602C127.456 13.2973 127.768 12.7434 128.204 12.2983C128.639 11.8485 129.172 11.5123 129.802 11.2898C130.432 11.0625 131.128 10.9489 131.89 10.9489C132.415 10.9489 132.939 11.0104 133.46 11.1335C133.98 11.2566 134.456 11.4602 134.887 11.7443C135.318 12.0237 135.664 12.4048 135.924 12.8878C136.189 13.3707 136.322 13.9744 136.322 14.6989V22H133.85V20.5014H133.765C133.609 20.8045 133.388 21.0885 133.104 21.3537C132.825 21.6141 132.472 21.8248 132.046 21.9858C131.625 22.142 131.13 22.2202 130.562 22.2202ZM131.229 20.331C131.745 20.331 132.193 20.2292 132.572 20.0256C132.951 19.8172 133.242 19.5426 133.445 19.2017C133.654 18.8608 133.758 18.4891 133.758 18.0866V16.8011C133.677 16.8674 133.54 16.929 133.346 16.9858C133.156 17.0426 132.943 17.0923 132.707 17.1349C132.47 17.1776 132.236 17.2154 132.004 17.2486C131.772 17.2817 131.57 17.3101 131.4 17.3338C131.016 17.3859 130.673 17.4711 130.37 17.5895C130.067 17.7079 129.828 17.8736 129.653 18.0866C129.478 18.295 129.39 18.5649 129.39 18.8963C129.39 19.3698 129.563 19.7273 129.908 19.9688C130.254 20.2102 130.694 20.331 131.229 20.331ZM138.907 22V11.0909H141.4V12.9091H141.513C141.712 12.2794 142.053 11.794 142.536 11.4531C143.024 11.1075 143.58 10.9347 144.205 10.9347C144.347 10.9347 144.506 10.9418 144.681 10.956C144.861 10.9654 145.01 10.982 145.129 11.0057V13.3707C145.02 13.3329 144.847 13.2997 144.61 13.2713C144.378 13.2382 144.153 13.2216 143.935 13.2216C143.467 13.2216 143.045 13.3234 142.671 13.527C142.302 13.7259 142.011 14.0028 141.798 14.358C141.585 14.7131 141.478 15.1226 141.478 15.5866V22H138.907ZM150.436 22.1918C149.579 22.1918 148.812 21.9716 148.135 21.5313C147.457 21.0909 146.922 20.4517 146.529 19.6136C146.136 18.7756 145.94 17.7576 145.94 16.5597C145.94 15.3475 146.139 14.3248 146.537 13.4915C146.939 12.6534 147.481 12.0213 148.163 11.5952C148.845 11.1643 149.605 10.9489 150.443 10.9489C151.082 10.9489 151.608 11.0578 152.02 11.2756C152.431 11.4886 152.758 11.7467 153 12.0497C153.241 12.348 153.428 12.6297 153.561 12.8949H153.667V7.45455H156.245V22H153.717V20.2813H153.561C153.428 20.5464 153.236 20.8281 152.985 21.1264C152.734 21.42 152.403 21.6709 151.991 21.8793C151.579 22.0876 151.061 22.1918 150.436 22.1918ZM151.153 20.0824C151.698 20.0824 152.162 19.9356 152.545 19.642C152.929 19.3438 153.22 18.9295 153.419 18.3991C153.618 17.8688 153.717 17.2509 153.717 16.5455C153.717 15.84 153.618 15.2268 153.419 14.706C153.225 14.1851 152.936 13.7803 152.552 13.4915C152.173 13.2027 151.707 13.0582 151.153 13.0582C150.58 13.0582 150.102 13.2074 149.718 13.5057C149.335 13.804 149.046 14.2159 148.852 14.7415C148.658 15.267 148.561 15.8684 148.561 16.5455C148.561 17.2273 148.658 17.8357 148.852 18.3707C149.051 18.901 149.342 19.3201 149.725 19.6278C150.114 19.9309 150.59 20.0824 151.153 20.0824Z" fill="white"/>
</svg>
