<svg width="24" height="24" viewBox="0 0 24 24" fill="none" xmlns="http://www.w3.org/2000/svg">
<mask id="mask0_314_69" style="mask-type:alpha" maskUnits="userSpaceOnUse" x="0" y="0" width="24" height="24">
<rect width="24" height="24" fill="#D9D9D9"/>
</mask>
<g mask="url(#mask0_314_69)">
<path d="M3.99998 19.5C3.59101 19.5 3.23878 19.3522 2.94328 19.0567C2.64776 18.7612 2.5 18.409 2.5 18V14.4039C3.06923 14.2949 3.54488 14.0157 3.92693 13.5664C4.30898 13.117 4.5 12.5949 4.5 12C4.5 11.4051 4.30898 10.883 3.92693 10.4337C3.54488 9.98429 3.06923 9.70511 2.5 9.59613V6.00001C2.5 5.59104 2.64776 5.23881 2.94328 4.94331C3.23878 4.64779 3.59101 4.50003 3.99998 4.50003H20C20.4089 4.50003 20.7612 4.64779 21.0567 4.94331C21.3522 5.23881 21.5 5.59104 21.5 6.00001V18C21.5 18.409 21.3522 18.7612 21.0567 19.0567C20.7612 19.3522 20.4089 19.5 20 19.5H3.99998ZM3.99998 18H20V6.00001H3.99998V8.55001C4.61664 8.91667 5.10414 9.40417 5.46248 10.0125C5.82081 10.6208 5.99998 11.2833 5.99998 12C5.99998 12.7167 5.82081 13.3792 5.46248 13.9875C5.10414 14.5958 4.61664 15.0833 3.99998 15.45V18ZM8.88845 15.5346L17.6923 13.2039C17.9295 13.1436 18.1122 13.0054 18.2404 12.7894C18.3686 12.5734 18.4025 12.35 18.3423 12.1192C18.282 11.8885 18.1458 11.7202 17.9336 11.6144C17.7214 11.5087 17.5 11.4859 17.2692 11.5462L14.7808 12.2154L10.7808 8.46541L9.55383 8.75771L11.9538 12.9577L9.38075 13.5962L8.13075 12.6462L7.35383 12.8577L8.88845 15.5346Z" fill="white"/>
</g>
</svg>
