<svg width="152" height="42" viewBox="0 0 152 42" fill="none" xmlns="http://www.w3.org/2000/svg">
<path d="M1.36719 11H0.392756L4.09659 0.818182H5.09091L8.79474 11H7.82031L4.62855 2.02628H4.55895L1.36719 11ZM2.06818 7.0973H7.11932V7.93253H2.06818V7.0973ZM11.2408 0.818182V11H10.3558V0.818182H11.2408ZM14.4673 0.818182V11H13.5824V0.818182H14.4673ZM21.3629 13.8636C21.1873 13.8636 21.0232 13.8471 20.8707 13.8139C20.7183 13.7808 20.5973 13.7443 20.5078 13.7045L20.7464 12.924C21.0481 13.0168 21.3165 13.05 21.5518 13.0234C21.7872 13.0002 21.996 12.8942 22.1783 12.7053C22.3606 12.5196 22.523 12.2346 22.6655 11.8501L22.9439 11.0746L20.1349 3.36364H21.0945L23.3615 9.83168H23.4311L25.6982 3.36364H26.6577L23.4261 12.2081C23.2902 12.576 23.1229 12.8826 22.924 13.1278C22.7251 13.3764 22.4948 13.5604 22.233 13.6797C21.9744 13.8023 21.6844 13.8636 21.3629 13.8636ZM31.0836 11.1591C30.4241 11.1591 29.8407 10.9917 29.3336 10.657C28.8298 10.3222 28.4354 9.85985 28.1504 9.26989C27.8654 8.67661 27.7228 7.99219 27.7228 7.21662C27.7228 6.43442 27.8654 5.74669 28.1504 5.15341C28.4354 4.55682 28.8298 4.0928 29.3336 3.76136C29.8407 3.42661 30.4241 3.25923 31.0836 3.25923C31.7432 3.25923 32.3249 3.42661 32.8287 3.76136C33.3324 4.09612 33.7269 4.56013 34.0119 5.15341C34.3002 5.74669 34.4444 6.43442 34.4444 7.21662C34.4444 7.99219 34.3019 8.67661 34.0169 9.26989C33.7318 9.85985 33.3358 10.3222 32.8287 10.657C32.3249 10.9917 31.7432 11.1591 31.0836 11.1591ZM31.0836 10.3487C31.6139 10.3487 32.063 10.2062 32.4309 9.92116C32.7988 9.63613 33.0772 9.25663 33.2662 8.78267C33.4584 8.30871 33.5545 7.78669 33.5545 7.21662C33.5545 6.64654 33.4584 6.12287 33.2662 5.6456C33.0772 5.16832 32.7988 4.78551 32.4309 4.49716C32.063 4.20881 31.6139 4.06463 31.0836 4.06463C30.5566 4.06463 30.1075 4.20881 29.7363 4.49716C29.3684 4.78551 29.0884 5.16832 28.8961 5.6456C28.7072 6.12287 28.6127 6.64654 28.6127 7.21662C28.6127 7.78669 28.7072 8.30871 28.8961 8.78267C29.0884 9.25663 29.3684 9.63613 29.7363 9.92116C30.1042 10.2062 30.5533 10.3487 31.0836 10.3487ZM41.2393 8.08168V3.36364H42.1243V11H41.2393V9.73224H41.1697C40.9908 10.1233 40.7074 10.4498 40.3196 10.7116C39.9318 10.9702 39.4579 11.0994 38.8977 11.0994C38.4105 11.0994 37.978 10.9934 37.6001 10.7812C37.2223 10.5658 36.9257 10.2509 36.7102 9.83665C36.4948 9.42235 36.3871 8.91359 36.3871 8.31037V3.36364H37.272V8.25568C37.272 8.85227 37.4477 9.33286 37.799 9.69744C38.1503 10.0587 38.6011 10.2393 39.1513 10.2393C39.496 10.2393 39.8274 10.1565 40.1456 9.99077C40.4638 9.82505 40.7256 9.5831 40.9311 9.26491C41.1366 8.94342 41.2393 8.54901 41.2393 8.08168ZM44.4672 11V3.36364H45.3272V4.53693H45.3919C45.5443 4.15246 45.8095 3.84257 46.1873 3.60724C46.5685 3.36861 46.9993 3.24929 47.4799 3.24929C47.5529 3.24929 47.6341 3.25095 47.7235 3.25426C47.813 3.25758 47.8876 3.26089 47.9473 3.2642V4.16406C47.9075 4.15743 47.8379 4.14749 47.7385 4.13423C47.639 4.12098 47.5313 4.11435 47.4153 4.11435C47.0176 4.11435 46.6629 4.19886 46.3514 4.3679C46.0431 4.53362 45.7995 4.76397 45.6206 5.05895C45.4416 5.35393 45.3521 5.69034 45.3521 6.06818V11H44.4672ZM56.0845 11.1491C55.468 11.1491 54.9179 10.9917 54.4339 10.6768C53.9534 10.3587 53.5755 9.90625 53.3004 9.3196C53.0286 8.72964 52.8928 8.02202 52.8928 7.19673C52.8928 6.37145 53.0303 5.66548 53.3054 5.07884C53.5838 4.49219 53.965 4.04309 54.4489 3.73153C54.9328 3.41998 55.4813 3.2642 56.0945 3.2642C56.5684 3.2642 56.9496 3.34375 57.2379 3.50284C57.5296 3.65862 57.755 3.84091 57.9141 4.04972C58.0765 4.25852 58.2024 4.44247 58.2919 4.60156H58.3814V0.818182H59.8679V11H58.4162V9.81179H58.2919C58.2024 9.9742 58.0732 10.1598 57.9041 10.3686C57.7384 10.5774 57.5097 10.7597 57.218 10.9155C56.9264 11.0713 56.5485 11.1491 56.0845 11.1491ZM56.4126 9.88139C56.8402 9.88139 57.2015 9.7687 57.4964 9.54332C57.7947 9.31463 58.0201 8.99811 58.1726 8.59375C58.3284 8.18939 58.4062 7.71875 58.4062 7.18182C58.4062 6.65151 58.33 6.1875 58.1776 5.78977C58.0251 5.39205 57.8014 5.08215 57.5064 4.86009C57.2114 4.63802 56.8468 4.52699 56.4126 4.52699C55.9652 4.52699 55.5923 4.64299 55.294 4.875C54.9957 5.10701 54.7704 5.42353 54.6179 5.82457C54.4688 6.22562 54.3942 6.67803 54.3942 7.18182C54.3942 7.69223 54.4704 8.15128 54.6229 8.55895C54.7753 8.96662 55.0007 9.28977 55.299 9.52841C55.6006 9.76373 55.9718 9.88139 56.4126 9.88139ZM65.2061 11.1541C64.4902 11.1541 63.8655 10.9901 63.3319 10.6619C62.7982 10.3338 62.3839 9.87476 62.089 9.2848C61.794 8.69484 61.6465 8.00544 61.6465 7.21662C61.6465 6.42448 61.794 5.73177 62.089 5.13849C62.3839 4.54522 62.7982 4.08452 63.3319 3.75639C63.8655 3.42827 64.4902 3.2642 65.2061 3.2642C65.9221 3.2642 66.5468 3.42827 67.0804 3.75639C67.6141 4.08452 68.0283 4.54522 68.3233 5.13849C68.6183 5.73177 68.7658 6.42448 68.7658 7.21662C68.7658 8.00544 68.6183 8.69484 68.3233 9.2848C68.0283 9.87476 67.6141 10.3338 67.0804 10.6619C66.5468 10.9901 65.9221 11.1541 65.2061 11.1541ZM65.2111 9.90625C65.6751 9.90625 66.0596 9.78362 66.3645 9.53835C66.6694 9.29309 66.8948 8.96662 67.0407 8.55895C67.1898 8.15128 67.2644 7.70218 67.2644 7.21165C67.2644 6.72443 67.1898 6.27699 67.0407 5.86932C66.8948 5.45833 66.6694 5.12855 66.3645 4.87997C66.0596 4.63139 65.6751 4.5071 65.2111 4.5071C64.7438 4.5071 64.356 4.63139 64.0478 4.87997C63.7428 5.12855 63.5158 5.45833 63.3667 5.86932C63.2208 6.27699 63.1479 6.72443 63.1479 7.21165C63.1479 7.70218 63.2208 8.15128 63.3667 8.55895C63.5158 8.96662 63.7428 9.29309 64.0478 9.53835C64.356 9.78362 64.7438 9.90625 65.2111 9.90625ZM73.6417 11.1541C72.9026 11.1541 72.2662 10.9867 71.7326 10.652C71.2023 10.3139 70.7946 9.84825 70.5096 9.25497C70.2246 8.66169 70.082 7.98224 70.082 7.21662C70.082 6.44105 70.2279 5.75663 70.5195 5.16335C70.8112 4.56676 71.2222 4.10109 71.7525 3.76633C72.2828 3.43158 72.9076 3.2642 73.6268 3.2642C74.2068 3.2642 74.7238 3.37192 75.1779 3.58736C75.632 3.79948 75.9982 4.09777 76.2766 4.48224C76.5584 4.86671 76.7257 5.31581 76.7788 5.82955H75.332C75.2525 5.47159 75.0702 5.16335 74.7852 4.90483C74.5034 4.64631 74.1256 4.51705 73.6516 4.51705C73.2373 4.51705 72.8744 4.62642 72.5629 4.84517C72.2546 5.06061 72.0143 5.36884 71.842 5.76989C71.6696 6.16761 71.5835 6.63826 71.5835 7.18182C71.5835 7.73864 71.668 8.21922 71.837 8.62358C72.006 9.02794 72.2447 9.34115 72.5529 9.56321C72.8645 9.78527 73.2307 9.89631 73.6516 9.89631C73.9334 9.89631 74.1886 9.84493 74.4173 9.74219C74.6493 9.63613 74.8432 9.48532 74.9989 9.28977C75.158 9.09422 75.2691 8.8589 75.332 8.58381H76.7788C76.7257 9.07765 76.565 9.51847 76.2965 9.90625C76.0281 10.294 75.6684 10.599 75.2177 10.821C74.7702 11.0431 74.2449 11.1541 73.6417 11.1541ZM83.2058 7.8331V3.36364H84.6973V11H83.2356V9.67756H83.1561C82.9804 10.0852 82.6987 10.425 82.3109 10.6967C81.9264 10.9652 81.4475 11.0994 80.8741 11.0994C80.3836 11.0994 79.9494 10.9917 79.5716 10.7763C79.197 10.5575 78.902 10.2344 78.6866 9.80682C78.4745 9.37926 78.3684 8.85062 78.3684 8.22088V3.36364H79.8549V8.0419C79.8549 8.56226 79.9991 8.97656 80.2875 9.2848C80.5758 9.59304 80.9503 9.74716 81.411 9.74716C81.6895 9.74716 81.9662 9.67756 82.2413 9.53835C82.5197 9.39915 82.7501 9.18868 82.9324 8.90696C83.118 8.62524 83.2091 8.26728 83.2058 7.8331ZM86.6946 11V3.36364H88.1214V4.60653H88.2159C88.375 4.18561 88.6352 3.85748 88.9964 3.62216C89.3577 3.38352 89.7902 3.2642 90.294 3.2642C90.8045 3.2642 91.232 3.38352 91.5767 3.62216C91.9247 3.8608 92.1816 4.18892 92.3473 4.60653H92.4268C92.6091 4.19886 92.8991 3.87405 93.2969 3.6321C93.6946 3.38684 94.1686 3.2642 94.7188 3.2642C95.4115 3.2642 95.9766 3.4813 96.4141 3.91548C96.8549 4.34967 97.0753 5.00426 97.0753 5.87926V11H95.5888V6.01847C95.5888 5.50142 95.4479 5.12689 95.1662 4.89489C94.8845 4.66288 94.5481 4.54688 94.157 4.54688C93.6731 4.54688 93.2969 4.69602 93.0284 4.99432C92.7599 5.2893 92.6257 5.6688 92.6257 6.13281V11H91.1442V5.92401C91.1442 5.50971 91.0149 5.17661 90.7564 4.92472C90.4979 4.67282 90.1615 4.54688 89.7472 4.54688C89.4654 4.54688 89.2053 4.62145 88.9666 4.7706C88.7313 4.91643 88.5407 5.12026 88.3949 5.3821C88.2524 5.64394 88.1811 5.94721 88.1811 6.2919V11H86.6946ZM102.359 11.1541C101.606 11.1541 100.959 10.9934 100.415 10.6719C99.8747 10.3471 99.4571 9.89134 99.1621 9.30469C98.8704 8.71473 98.7246 8.02367 98.7246 7.23153C98.7246 6.44934 98.8704 5.75994 99.1621 5.16335C99.4571 4.56676 99.8681 4.10109 100.395 3.76633C100.925 3.43158 101.545 3.2642 102.254 3.2642C102.685 3.2642 103.103 3.33546 103.507 3.47798C103.912 3.6205 104.275 3.84422 104.596 4.14915C104.918 4.45407 105.171 4.85014 105.357 5.33736C105.542 5.82126 105.635 6.40956 105.635 7.10227V7.62926H99.5648V6.51562H104.178C104.178 6.12453 104.099 5.77817 103.94 5.47656C103.781 5.17164 103.557 4.93134 103.269 4.75568C102.984 4.58002 102.649 4.49219 102.264 4.49219C101.847 4.49219 101.482 4.59493 101.171 4.80043C100.862 5.0026 100.624 5.26776 100.455 5.59588C100.289 5.92069 100.206 6.27367 100.206 6.65483V7.52486C100.206 8.03527 100.296 8.46946 100.475 8.82741C100.657 9.18537 100.91 9.45881 101.235 9.64773C101.56 9.83333 101.94 9.92614 102.374 9.92614C102.655 9.92614 102.912 9.88636 103.144 9.80682C103.376 9.72396 103.577 9.60133 103.746 9.43892C103.915 9.27652 104.044 9.07599 104.134 8.83736L105.541 9.09091C105.428 9.50521 105.226 9.86813 104.934 10.1797C104.646 10.4879 104.283 10.7282 103.845 10.9006C103.411 11.0696 102.916 11.1541 102.359 11.1541ZM108.771 6.46591V11H107.284V3.36364H108.711V4.60653H108.806C108.981 4.20218 109.257 3.87737 109.631 3.6321C110.009 3.38684 110.484 3.2642 111.058 3.2642C111.578 3.2642 112.034 3.37358 112.425 3.59233C112.816 3.80777 113.119 4.12926 113.335 4.55682C113.55 4.98437 113.658 5.51302 113.658 6.14276V11H112.172V6.32173C112.172 5.76823 112.027 5.3357 111.739 5.02415C111.451 4.70928 111.055 4.55185 110.551 4.55185C110.206 4.55185 109.9 4.62642 109.631 4.77557C109.366 4.92472 109.155 5.14347 109 5.43182C108.847 5.71686 108.771 6.06155 108.771 6.46591ZM119.216 3.36364V4.55682H115.045V3.36364H119.216ZM116.164 1.53409H117.65V8.75781C117.65 9.04616 117.693 9.26326 117.779 9.40909C117.866 9.55161 117.977 9.64938 118.113 9.70241C118.252 9.75213 118.403 9.77699 118.565 9.77699C118.684 9.77699 118.789 9.7687 118.878 9.75213C118.968 9.73556 119.037 9.7223 119.087 9.71236L119.355 10.9403C119.269 10.9735 119.147 11.0066 118.988 11.0398C118.828 11.0762 118.63 11.0961 118.391 11.0994C118 11.1061 117.635 11.0365 117.297 10.8906C116.959 10.7448 116.686 10.5194 116.477 10.2145C116.268 9.90956 116.164 9.52675 116.164 9.06605V1.53409ZM126.46 5.22798L125.113 5.46662C125.056 5.29427 124.967 5.13021 124.844 4.97443C124.725 4.81865 124.562 4.69105 124.357 4.59162C124.151 4.49219 123.895 4.44247 123.586 4.44247C123.165 4.44247 122.814 4.53693 122.532 4.72585C122.251 4.91146 122.11 5.15175 122.11 5.44673C122.11 5.70194 122.204 5.90743 122.393 6.06321C122.582 6.21899 122.887 6.34659 123.308 6.44602L124.521 6.72443C125.224 6.88684 125.747 7.13707 126.092 7.47514C126.437 7.81321 126.609 8.25237 126.609 8.79261C126.609 9.25 126.476 9.65767 126.211 10.0156C125.949 10.3703 125.583 10.6487 125.113 10.8509C124.645 11.053 124.103 11.1541 123.487 11.1541C122.632 11.1541 121.934 10.9718 121.394 10.6072C120.854 10.2393 120.522 9.71733 120.4 9.04119L121.836 8.82244C121.926 9.19697 122.11 9.48035 122.388 9.67259C122.667 9.86151 123.029 9.95597 123.477 9.95597C123.964 9.95597 124.354 9.85488 124.645 9.6527C124.937 9.44721 125.083 9.19697 125.083 8.90199C125.083 8.66335 124.993 8.46283 124.814 8.30043C124.639 8.13802 124.368 8.01539 124.004 7.93253L122.711 7.64915C121.999 7.48674 121.472 7.22822 121.13 6.87358C120.792 6.51894 120.623 6.06984 120.623 5.52628C120.623 5.07552 120.749 4.68111 121.001 4.34304C121.253 4.00497 121.601 3.74148 122.045 3.55256C122.489 3.36032 122.998 3.2642 123.571 3.2642C124.397 3.2642 125.046 3.44318 125.52 3.80114C125.994 4.15578 126.307 4.63139 126.46 5.22798ZM134.483 11.174C134.022 11.174 133.601 11.0845 133.22 10.9055C132.839 10.7232 132.536 10.4614 132.31 10.12C132.085 9.77533 131.972 9.35772 131.972 8.86719C131.972 8.48935 132.043 8.17116 132.186 7.91264C132.328 7.65412 132.531 7.442 132.792 7.27628C133.054 7.11056 133.364 6.97964 133.722 6.88352C134.08 6.78741 134.474 6.71283 134.905 6.6598C135.333 6.60677 135.694 6.56037 135.989 6.5206C136.287 6.48082 136.515 6.41785 136.67 6.33168C136.826 6.2455 136.904 6.1063 136.904 5.91406V5.73509C136.904 5.21473 136.748 4.8054 136.437 4.5071C136.128 4.20549 135.684 4.05469 135.104 4.05469C134.554 4.05469 134.105 4.17566 133.757 4.41761C133.412 4.65956 133.17 4.9446 133.031 5.27273L132.191 4.96946C132.363 4.55185 132.602 4.21875 132.907 3.97017C133.212 3.71828 133.553 3.53764 133.931 3.42827C134.309 3.31558 134.692 3.25923 135.079 3.25923C135.371 3.25923 135.674 3.29735 135.989 3.37358C136.307 3.44981 136.602 3.58239 136.874 3.77131C137.146 3.95691 137.366 4.21709 137.535 4.55185C137.704 4.88329 137.789 5.30421 137.789 5.81463V11H136.904V9.7919H136.849C136.743 10.0173 136.586 10.236 136.377 10.4482C136.168 10.6603 135.906 10.8343 135.591 10.9702C135.277 11.1061 134.907 11.174 134.483 11.174ZM134.602 10.3636C135.073 10.3636 135.48 10.2592 135.825 10.0504C136.17 9.84162 136.435 9.56487 136.621 9.22017C136.809 8.87216 136.904 8.48935 136.904 8.07173V6.96804C136.838 7.03101 136.727 7.08736 136.571 7.13707C136.418 7.18679 136.241 7.23153 136.039 7.27131C135.84 7.30776 135.641 7.33925 135.442 7.36577C135.243 7.39228 135.064 7.41548 134.905 7.43537C134.474 7.4884 134.107 7.57126 133.802 7.68395C133.497 7.79664 133.263 7.95241 133.101 8.15128C132.938 8.34683 132.857 8.59872 132.857 8.90696C132.857 9.37098 133.023 9.73059 133.354 9.9858C133.686 10.2377 134.102 10.3636 134.602 10.3636ZM140.143 11V3.36364H141.003V4.53693H141.068C141.22 4.15246 141.485 3.84257 141.863 3.60724C142.244 3.36861 142.675 3.24929 143.156 3.24929C143.229 3.24929 143.31 3.25095 143.399 3.25426C143.489 3.25758 143.563 3.26089 143.623 3.2642V4.16406C143.583 4.15743 143.514 4.14749 143.414 4.13423C143.315 4.12098 143.207 4.11435 143.091 4.11435C142.693 4.11435 142.339 4.19886 142.027 4.3679C141.719 4.53362 141.475 4.76397 141.296 5.05895C141.117 5.35393 141.028 5.69034 141.028 6.06818V11H140.143ZM147.988 11.1591C147.276 11.1591 146.659 10.9934 146.139 10.6619C145.618 10.3272 145.216 9.86482 144.931 9.27486C144.649 8.68158 144.508 7.99882 144.508 7.22656C144.508 6.45762 144.649 5.77486 144.931 5.17827C145.216 4.57836 145.608 4.10937 146.109 3.77131C146.613 3.42992 147.194 3.25923 147.854 3.25923C148.268 3.25923 148.668 3.33546 149.052 3.48793C149.436 3.63707 149.781 3.86742 150.086 4.17898C150.394 4.48722 150.638 4.87666 150.817 5.3473C150.996 5.81463 151.085 6.36813 151.085 7.00781V7.44531H145.119V6.66477H150.181C150.181 6.17424 150.081 5.73343 149.882 5.34233C149.687 4.94792 149.413 4.63636 149.062 4.40767C148.714 4.17898 148.311 4.06463 147.854 4.06463C147.37 4.06463 146.944 4.19389 146.576 4.45241C146.208 4.71094 145.92 5.05232 145.711 5.47656C145.506 5.9008 145.401 6.36482 145.398 6.86861V7.33594C145.398 7.94247 145.502 8.47277 145.711 8.92685C145.923 9.3776 146.223 9.72727 146.611 9.97585C146.999 10.2244 147.458 10.3487 147.988 10.3487C148.349 10.3487 148.666 10.2924 148.938 10.1797C149.213 10.067 149.443 9.91619 149.629 9.72727C149.818 9.53504 149.96 9.32457 150.056 9.09588L150.896 9.36932C150.78 9.69081 150.59 9.98745 150.325 10.2592C150.063 10.531 149.735 10.7498 149.34 10.9155C148.949 11.0779 148.499 11.1591 147.988 11.1591ZM8.27415 32.4119V26.0909H10.8452V37H8.35227V35.0611H8.23864C7.99242 35.6719 7.58759 36.1714 7.02415 36.5597C6.46544 36.9479 5.77652 37.142 4.95739 37.142C4.24242 37.142 3.61032 36.9834 3.06108 36.6662C2.51657 36.3442 2.09044 35.8778 1.78267 35.267C1.47491 34.6515 1.32102 33.9081 1.32102 33.0369V26.0909H3.89205V32.6392C3.89205 33.3305 4.08144 33.8797 4.46023 34.2869C4.83902 34.6941 5.33617 34.8977 5.9517 34.8977C6.33049 34.8977 6.69744 34.8054 7.05256 34.6207C7.40767 34.4361 7.69886 34.1615 7.92614 33.7969C8.15814 33.4276 8.27415 32.9659 8.27415 32.4119ZM13.489 41.0909V26.0909H16.0174V27.8949H16.1665C16.2991 27.6297 16.4862 27.348 16.7276 27.0497C16.9691 26.7467 17.2958 26.4886 17.7077 26.2756C18.1197 26.0578 18.6452 25.9489 19.2844 25.9489C20.1272 25.9489 20.8872 26.1643 21.5643 26.5952C22.2461 27.0213 22.7859 27.6534 23.1836 28.4915C23.5861 29.3248 23.7873 30.3475 23.7873 31.5597C23.7873 32.7576 23.5908 33.7756 23.1978 34.6136C22.8048 35.4517 22.2698 36.0909 21.5927 36.5312C20.9156 36.9716 20.1486 37.1918 19.2915 37.1918C18.6665 37.1918 18.1481 37.0876 17.7362 36.8793C17.3242 36.6709 16.9928 36.42 16.7418 36.1264C16.4956 35.8281 16.3039 35.5464 16.1665 35.2812H16.06V41.0909H13.489ZM16.0103 31.5455C16.0103 32.2509 16.1097 32.8688 16.3086 33.3991C16.5122 33.9295 16.8034 34.3437 17.1822 34.642C17.5657 34.9356 18.0297 35.0824 18.5742 35.0824C19.1424 35.0824 19.6183 34.9309 20.0018 34.6278C20.3853 34.3201 20.6741 33.901 20.8683 33.3707C21.0671 32.8357 21.1665 32.2273 21.1665 31.5455C21.1665 30.8684 21.0695 30.267 20.8754 29.7415C20.6812 29.2159 20.3924 28.804 20.0089 28.5057C19.6254 28.2074 19.1471 28.0582 18.5742 28.0582C18.025 28.0582 17.5586 28.2027 17.1751 28.4915C16.7915 28.7803 16.5004 29.1851 16.3015 29.706C16.1074 30.2268 16.0103 30.84 16.0103 31.5455ZM36.3974 26.0909V28.0795H30.1261V26.0909H36.3974ZM31.6744 23.4773H34.2454V33.7188C34.2454 34.0644 34.2975 34.3295 34.4016 34.5142C34.5105 34.6941 34.6526 34.8172 34.8278 34.8835C35.003 34.9498 35.1971 34.983 35.4102 34.983C35.5711 34.983 35.7179 34.9711 35.8505 34.9474C35.9878 34.9238 36.092 34.9025 36.163 34.8835L36.5962 36.8935C36.4589 36.9408 36.2624 36.9929 36.0067 37.0497C35.7558 37.1065 35.448 37.1397 35.0835 37.1491C34.4395 37.1681 33.8595 37.071 33.3434 36.858C32.8273 36.6402 32.4177 36.304 32.1147 35.8494C31.8164 35.3949 31.6696 34.8267 31.6744 34.1449V23.4773ZM43.1889 37.2131C42.1236 37.2131 41.2003 36.9787 40.419 36.5099C39.6378 36.0412 39.0317 35.3854 38.6009 34.5426C38.1747 33.6998 37.9616 32.715 37.9616 31.5881C37.9616 30.4612 38.1747 29.474 38.6009 28.6264C39.0317 27.7789 39.6378 27.1207 40.419 26.652C41.2003 26.1832 42.1236 25.9489 43.1889 25.9489C44.2543 25.9489 45.1776 26.1832 45.9588 26.652C46.7401 27.1207 47.3438 27.7789 47.7699 28.6264C48.2008 29.474 48.4162 30.4612 48.4162 31.5881C48.4162 32.715 48.2008 33.6998 47.7699 34.5426C47.3438 35.3854 46.7401 36.0412 45.9588 36.5099C45.1776 36.9787 44.2543 37.2131 43.1889 37.2131ZM43.2031 35.1534C43.7808 35.1534 44.2637 34.9948 44.652 34.6776C45.0402 34.3556 45.3291 33.9247 45.5185 33.3849C45.7126 32.8452 45.8097 32.2438 45.8097 31.581C45.8097 30.9134 45.7126 30.3097 45.5185 29.7699C45.3291 29.2254 45.0402 28.7921 44.652 28.4702C44.2637 28.1482 43.7808 27.9872 43.2031 27.9872C42.6113 27.9872 42.1188 28.1482 41.7259 28.4702C41.3376 28.7921 41.0464 29.2254 40.8523 29.7699C40.6629 30.3097 40.5682 30.9134 40.5682 31.581C40.5682 32.2438 40.6629 32.8452 40.8523 33.3849C41.0464 33.9247 41.3376 34.3556 41.7259 34.6776C42.1188 34.9948 42.6113 35.1534 43.2031 35.1534ZM59.6076 37.1918C58.7506 37.1918 57.9835 36.9716 57.3065 36.5312C56.6294 36.0909 56.0943 35.4517 55.7013 34.6136C55.3084 33.7756 55.1119 32.7576 55.1119 31.5597C55.1119 30.3475 55.3107 29.3248 55.7085 28.4915C56.1109 27.6534 56.6531 27.0213 57.3349 26.5952C58.0167 26.1643 58.7766 25.9489 59.6147 25.9489C60.2539 25.9489 60.7795 26.0578 61.1914 26.2756C61.6033 26.4886 61.93 26.7467 62.1715 27.0497C62.413 27.348 62.6 27.6297 62.7326 27.8949H62.8391V22.4545H65.4173V37H62.8888V35.2812H62.7326C62.6 35.5464 62.4083 35.8281 62.1573 36.1264C61.9064 36.42 61.5749 36.6709 61.163 36.8793C60.7511 37.0876 60.2326 37.1918 59.6076 37.1918ZM60.3249 35.0824C60.8694 35.0824 61.3335 34.9356 61.717 34.642C62.1005 34.3437 62.3917 33.9295 62.5906 33.3991C62.7894 32.8688 62.8888 32.2509 62.8888 31.5455C62.8888 30.84 62.7894 30.2268 62.5906 29.706C62.3964 29.1851 62.1076 28.7803 61.7241 28.4915C61.3453 28.2027 60.8789 28.0582 60.3249 28.0582C59.752 28.0582 59.2738 28.2074 58.8903 28.5057C58.5067 28.804 58.2179 29.2159 58.0238 29.7415C57.8297 30.267 57.7326 30.8684 57.7326 31.5455C57.7326 32.2273 57.8297 32.8357 58.0238 33.3707C58.2227 33.901 58.5138 34.3201 58.8974 34.6278C59.2856 34.9309 59.7615 35.0824 60.3249 35.0824ZM71.2962 37.2202C70.6049 37.2202 69.9822 37.0971 69.4283 36.8509C68.879 36.5999 68.4434 36.2306 68.1214 35.7429C67.8042 35.2552 67.6456 34.6539 67.6456 33.9389C67.6456 33.3234 67.7592 32.8144 67.9865 32.4119C68.2138 32.0095 68.5239 31.6875 68.9169 31.446C69.3099 31.2045 69.7526 31.0223 70.245 30.8991C70.7422 30.7713 71.2559 30.679 71.7862 30.6222C72.4254 30.5559 72.9439 30.4967 73.3416 30.4446C73.7393 30.3878 74.0282 30.3026 74.2081 30.1889C74.3928 30.0705 74.4851 29.8883 74.4851 29.642V29.5994C74.4851 29.0644 74.3265 28.6501 74.0092 28.3565C73.692 28.063 73.2351 27.9162 72.6385 27.9162C72.0088 27.9162 71.5092 28.0535 71.1399 28.3281C70.7753 28.6027 70.5291 28.9271 70.4013 29.3011L68.0007 28.9602C68.1901 28.2973 68.5026 27.7434 68.9382 27.2983C69.3738 26.8485 69.9065 26.5123 70.5362 26.2898C71.166 26.0625 71.862 25.9489 72.6243 25.9489C73.1499 25.9489 73.6731 26.0104 74.1939 26.1335C74.7147 26.2566 75.1906 26.4602 75.6214 26.7443C76.0523 27.0237 76.398 27.4048 76.6584 27.8878C76.9235 28.3707 77.0561 28.9744 77.0561 29.6989V37H74.5845V35.5014H74.4993C74.343 35.8045 74.1229 36.0885 73.8388 36.3537C73.5594 36.6141 73.2067 36.8248 72.7805 36.9858C72.3591 37.142 71.8643 37.2202 71.2962 37.2202ZM71.9638 35.331C72.4799 35.331 72.9273 35.2292 73.3061 35.0256C73.6849 34.8172 73.9761 34.5426 74.1797 34.2017C74.388 33.8608 74.4922 33.4891 74.4922 33.0866V31.8011C74.4117 31.8674 74.2744 31.929 74.0803 31.9858C73.8909 32.0426 73.6778 32.0923 73.4411 32.1349C73.2043 32.1776 72.9699 32.2154 72.7379 32.2486C72.5059 32.2817 72.3047 32.3101 72.1342 32.3338C71.7507 32.3859 71.4074 32.4711 71.1044 32.5895C70.8014 32.7079 70.5623 32.8736 70.3871 33.0866C70.2119 33.295 70.1243 33.5649 70.1243 33.8963C70.1243 34.3698 70.2971 34.7273 70.6428 34.9688C70.9884 35.2102 71.4287 35.331 71.9638 35.331ZM85.0888 26.0909V28.0795H78.8175V26.0909H85.0888ZM80.3658 23.4773H82.9368V33.7188C82.9368 34.0644 82.9889 34.3295 83.093 34.5142C83.2019 34.6941 83.344 34.8172 83.5192 34.8835C83.6944 34.9498 83.8885 34.983 84.1016 34.983C84.2625 34.983 84.4093 34.9711 84.5419 34.9474C84.6792 34.9238 84.7834 34.9025 84.8544 34.8835L85.2876 36.8935C85.1503 36.9408 84.9538 36.9929 84.6982 37.0497C84.4472 37.1065 84.1394 37.1397 83.7749 37.1491C83.1309 37.1681 82.5509 37.071 82.0348 36.858C81.5187 36.6402 81.1091 36.304 80.8061 35.8494C80.5078 35.3949 80.361 34.8267 80.3658 34.1449V23.4773ZM91.9513 37.2131C90.8576 37.2131 89.913 36.9858 89.1175 36.5312C88.3268 36.072 87.7184 35.4233 87.2923 34.5852C86.8661 33.7424 86.6531 32.7505 86.6531 31.6094C86.6531 30.4872 86.8661 29.5024 87.2923 28.6548C87.7231 27.8026 88.3245 27.1397 89.0962 26.6662C89.868 26.188 90.7747 25.9489 91.8164 25.9489C92.4888 25.9489 93.1232 26.0578 93.7198 26.2756C94.3211 26.4886 94.8514 26.8201 95.3107 27.2699C95.7747 27.7197 96.1393 28.2926 96.4045 28.9886C96.6696 29.6799 96.8022 30.5038 96.8022 31.4602V32.2486H87.8604V30.5156H94.3377C94.333 30.0232 94.2264 29.5852 94.0181 29.2017C93.8098 28.8134 93.5186 28.508 93.1445 28.2855C92.7752 28.063 92.3443 27.9517 91.8519 27.9517C91.3263 27.9517 90.8647 28.0795 90.467 28.3352C90.0692 28.5862 89.7591 28.9176 89.5366 29.3295C89.3188 29.7367 89.2075 30.1842 89.2028 30.6719V32.1847C89.2028 32.8191 89.3188 33.3636 89.5508 33.8182C89.7828 34.268 90.1071 34.6136 90.5238 34.8551C90.9405 35.0919 91.4281 35.2102 91.9869 35.2102C92.3609 35.2102 92.6995 35.1581 93.0025 35.054C93.3055 34.9451 93.5683 34.7865 93.7908 34.5781C94.0134 34.3698 94.1815 34.1117 94.2951 33.804L96.6957 34.0739C96.5442 34.7083 96.2553 35.2623 95.8292 35.7358C95.4078 36.2045 94.868 36.5691 94.2099 36.8295C93.5517 37.0852 92.7989 37.2131 91.9513 37.2131ZM102.124 22.4545L101.889 32.7244H99.6023L99.375 22.4545H102.124ZM100.746 37.1562C100.315 37.1562 99.9455 37.0047 99.6378 36.7017C99.3348 36.3987 99.1832 36.0294 99.1832 35.5938C99.1832 35.1676 99.3348 34.803 99.6378 34.5C99.9455 34.197 100.315 34.0455 100.746 34.0455C101.167 34.0455 101.532 34.197 101.839 34.5C102.152 34.803 102.308 35.1676 102.308 35.5938C102.308 35.8826 102.235 36.1454 102.088 36.3821C101.946 36.6188 101.757 36.8082 101.52 36.9503C101.288 37.0876 101.03 37.1562 100.746 37.1562Z" fill="#1E1F21"/>
</svg>
