<svg width="24" height="24" viewBox="0 0 24 24" fill="none" xmlns="http://www.w3.org/2000/svg">
<mask id="mask0_314_79" style="mask-type:alpha" maskUnits="userSpaceOnUse" x="0" y="0" width="24" height="24">
<rect width="24" height="24" fill="#D9D9D9"/>
</mask>
<g mask="url(#mask0_314_79)">
<path d="M13.7554 14.7757C14.0054 14.7757 14.2221 14.684 14.4054 14.5007C14.5888 14.3173 14.6804 14.1007 14.6804 13.8507C14.6804 13.6007 14.5888 13.388 14.4054 13.2127C14.2221 13.038 14.0054 12.9507 13.7554 12.9507C13.5054 12.9507 13.2888 13.038 13.1054 13.2127C12.9221 13.388 12.8304 13.6007 12.8304 13.8507C12.8304 14.1007 12.9221 14.3173 13.1054 14.5007C13.2888 14.684 13.5054 14.7757 13.7554 14.7757ZM13.1554 11.7507H14.3554C14.3721 11.3007 14.4304 10.9673 14.5304 10.7507C14.6304 10.534 14.8721 10.2423 15.2554 9.87568C15.7221 9.42568 16.0388 9.05068 16.2054 8.75068C16.3721 8.45068 16.4554 8.09235 16.4554 7.67568C16.4554 6.97568 16.2054 6.39235 15.7054 5.92568C15.2054 5.45901 14.5554 5.22568 13.7554 5.22568C13.1388 5.22568 12.5931 5.39635 12.1184 5.73768C11.6431 6.07968 11.3054 6.54235 11.1054 7.12568L12.1804 7.57568C12.3471 7.17568 12.5638 6.87135 12.8304 6.66268C13.0971 6.45468 13.4054 6.35068 13.7554 6.35068C14.1888 6.35068 14.5471 6.47968 14.8304 6.73768C15.1138 6.99635 15.2554 7.33401 15.2554 7.75068C15.2554 8.00068 15.1848 8.23801 15.0434 8.46268C14.9014 8.68801 14.6554 8.95901 14.3054 9.27568C13.8221 9.69235 13.5098 10.0463 13.3684 10.3377C13.2264 10.6297 13.1554 11.1007 13.1554 11.7507ZM8.05543 17.5007C7.55543 17.5007 7.13043 17.3257 6.78043 16.9757C6.43043 16.6257 6.25543 16.2007 6.25543 15.7007V4.30068C6.25543 3.80068 6.43043 3.37568 6.78043 3.02568C7.13043 2.67568 7.55543 2.50068 8.05543 2.50068H19.4554C19.9554 2.50068 20.3804 2.67568 20.7304 3.02568C21.0804 3.37568 21.2554 3.80068 21.2554 4.30068V15.7007C21.2554 16.2007 21.0804 16.6257 20.7304 16.9757C20.3804 17.3257 19.9554 17.5007 19.4554 17.5007H8.05543ZM8.05543 16.0007H19.4554C19.5221 16.0007 19.5888 15.9673 19.6554 15.9007C19.7221 15.834 19.7554 15.7673 19.7554 15.7007V4.30068C19.7554 4.23401 19.7221 4.16735 19.6554 4.10068C19.5888 4.03401 19.5221 4.00068 19.4554 4.00068H8.05543C7.98877 4.00068 7.9221 4.03401 7.85543 4.10068C7.78877 4.16735 7.75543 4.23401 7.75543 4.30068V15.7007C7.75543 15.7673 7.78877 15.834 7.85543 15.9007C7.9221 15.9673 7.98877 16.0007 8.05543 16.0007ZM4.55543 21.0007C4.05543 21.0007 3.63043 20.8257 3.28043 20.4757C2.93043 20.1257 2.75543 19.7007 2.75543 19.2007V6.30068H4.25543V19.2007C4.25543 19.2673 4.28877 19.334 4.35543 19.4007C4.4221 19.4673 4.48877 19.5007 4.55543 19.5007H17.4554V21.0007H4.55543Z" fill="white"/>
</g>
</svg>
