<svg width="24" height="24" viewBox="0 0 24 24" fill="none" xmlns="http://www.w3.org/2000/svg">
<mask id="mask0_314_32" style="mask-type:alpha" maskUnits="userSpaceOnUse" x="0" y="0" width="24" height="24">
<rect width="24" height="24" fill="#D9D9D9"/>
</mask>
<g mask="url(#mask0_314_32)">
<path d="M16.4658 12.475L11.5408 7.55004L16.4658 2.60004L21.4158 7.55004L16.4658 12.475ZM3.79077 10.8V3.80004H10.7908V10.8H3.79077ZM13.1908 20.2V13.2H20.1908V20.2H13.1908ZM3.79077 20.2V13.2H10.7908V20.2H3.79077ZM5.29077 9.30004H9.29077V5.30004H5.29077V9.30004ZM16.4908 10.4L19.3158 7.57504L16.4908 4.75004L13.6658 7.57504L16.4908 10.4ZM14.6908 18.7H18.6908V14.7H14.6908V18.7ZM5.29077 18.7H9.29077V14.7H5.29077V18.7Z" fill="white"/>
</g>
</svg>
