<svg width="24" height="24" viewBox="0 0 24 24" fill="none" xmlns="http://www.w3.org/2000/svg">
<mask id="mask0_314_96" style="mask-type:alpha" maskUnits="userSpaceOnUse" x="0" y="0" width="24" height="24">
<rect width="24" height="24" fill="#D9D9D9"/>
</mask>
<g mask="url(#mask0_314_96)">
<path d="M11.9984 17.6258C12.2817 17.6258 12.5194 17.5258 12.7114 17.3258C12.9027 17.1258 12.9984 16.8841 12.9984 16.6008C12.9984 16.3175 12.9027 16.0758 12.7114 15.8758C12.5194 15.6758 12.2817 15.5758 11.9984 15.5758C11.6984 15.5758 11.4527 15.6758 11.2614 15.8758C11.0694 16.0758 10.9734 16.3175 10.9734 16.6008C10.9734 16.8841 11.0694 17.1258 11.2614 17.3258C11.4527 17.5258 11.6984 17.6258 11.9984 17.6258ZM11.2734 14.0258H12.6984C12.6984 13.5425 12.7651 13.1548 12.8984 12.8628C13.0317 12.5715 13.3484 12.1758 13.8484 11.6758C14.2984 11.2425 14.6401 10.8381 14.8734 10.4628C15.1067 10.0881 15.2234 9.65079 15.2234 9.15079C15.2234 8.28413 14.9151 7.60913 14.2984 7.12579C13.6817 6.64246 12.9484 6.40079 12.0984 6.40079C11.2651 6.40079 10.5734 6.62579 10.0234 7.07579C9.47341 7.52579 9.08175 8.05079 8.84841 8.65079L10.1484 9.15079C10.2651 8.83413 10.4694 8.51746 10.7614 8.20079C11.0527 7.88413 11.4901 7.72579 12.0734 7.72579C12.6734 7.72579 13.1151 7.88813 13.3984 8.21279C13.6817 8.53813 13.8234 8.89246 13.8234 9.27579C13.8234 9.60913 13.7234 9.91746 13.5234 10.2008C13.3234 10.4841 13.0734 10.7591 12.7734 11.0258C12.1234 11.6091 11.7111 12.0801 11.5364 12.4388C11.3611 12.7968 11.2734 13.3258 11.2734 14.0258ZM11.9984 21.5008C10.6817 21.5008 9.44441 21.2508 8.28641 20.7508C7.12775 20.2508 6.12341 19.5758 5.27341 18.7258C4.42341 17.8758 3.74841 16.8715 3.24841 15.7128C2.74841 14.5548 2.49841 13.3175 2.49841 12.0008C2.49841 10.6841 2.74841 9.44646 3.24841 8.28779C3.74841 7.12979 4.42341 6.12579 5.27341 5.27579C6.12341 4.42579 7.12775 3.75079 8.28641 3.25079C9.44441 2.75079 10.6817 2.50079 11.9984 2.50079C13.3151 2.50079 14.5527 2.75079 15.7114 3.25079C16.8694 3.75079 17.8734 4.42579 18.7234 5.27579C19.5734 6.12579 20.2484 7.12979 20.7484 8.28779C21.2484 9.44646 21.4984 10.6841 21.4984 12.0008C21.4984 13.3175 21.2484 14.5548 20.7484 15.7128C20.2484 16.8715 19.5734 17.8758 18.7234 18.7258C17.8734 19.5758 16.8694 20.2508 15.7114 20.7508C14.5527 21.2508 13.3151 21.5008 11.9984 21.5008ZM11.9984 20.0008C14.2317 20.0008 16.1234 19.2258 17.6734 17.6758C19.2234 16.1258 19.9984 14.2341 19.9984 12.0008C19.9984 9.76746 19.2234 7.87579 17.6734 6.32579C16.1234 4.77579 14.2317 4.00079 11.9984 4.00079C9.76508 4.00079 7.87341 4.77579 6.32341 6.32579C4.77341 7.87579 3.99841 9.76746 3.99841 12.0008C3.99841 14.2341 4.77341 16.1258 6.32341 17.6758C7.87341 19.2258 9.76508 20.0008 11.9984 20.0008Z" fill="white"/>
</g>
</svg>
