<svg width="24" height="24" viewBox="0 0 24 24" fill="none" xmlns="http://www.w3.org/2000/svg">
<mask id="mask0_314_41" style="mask-type:alpha" maskUnits="userSpaceOnUse" x="0" y="0" width="24" height="24">
<rect width="24" height="24" fill="#D9D9D9"/>
</mask>
<g mask="url(#mask0_314_41)">
<path d="M5.05224 20.5C4.54711 20.5 4.11955 20.325 3.76957 19.975C3.41957 19.625 3.24457 19.1974 3.24457 18.6923V5.30772C3.24457 4.80259 3.41957 4.37503 3.76957 4.02503C4.11955 3.67503 4.54711 3.50003 5.05224 3.50003H14.2061V5H5.05224C4.96249 5 4.88877 5.02885 4.83107 5.08655C4.77337 5.14425 4.74452 5.21797 4.74452 5.30772V18.6923C4.74452 18.782 4.77337 18.8558 4.83107 18.9135C4.88877 18.9712 4.96249 19 5.05224 19H18.4368C18.5266 19 18.6003 18.9712 18.658 18.9135C18.7157 18.8558 18.7445 18.782 18.7445 18.6923V9.53843H20.2445V18.6923C20.2445 19.1974 20.0695 19.625 19.7195 19.975C19.3695 20.325 18.9419 20.5 18.4368 20.5H5.05224ZM7.10994 16.75H8.60989V10.25H7.10994V16.75ZM10.9945 16.75H12.4945V7.25003H10.9945V16.75ZM14.8791 16.75H16.3791V13.25H14.8791V16.75ZM17.2446 8.49998V6.49998H15.2446V5H17.2446V3H18.7445V5H20.7445V6.49998H18.7445V8.49998H17.2446Z" fill="white"/>
</g>
</svg>
