<svg width="143" height="149" viewBox="0 0 143 149" fill="none" xmlns="http://www.w3.org/2000/svg">
<g clip-path="url(#clip0_0_396)">
<circle cx="61.409" cy="61.409" r="61.409" transform="matrix(0.322596 -0.946537 -0.946537 -0.322596 110.379 152.875)" fill="#5BB991"/>
<mask id="path-2-outside-1_0_396" maskUnits="userSpaceOnUse" x="-5.54101" y="-5.8291" width="100.215" height="132.036" fill="black">
<rect fill="white" x="-5.54101" y="-5.8291" width="100.215" height="132.036"/>
<path d="M91.69 16.7505C79.3267 12.5368 65.9419 12.375 53.4803 16.2886C41.0188 20.2021 30.1296 27.9871 22.3951 38.5125C14.6605 49.0378 10.4834 61.7552 10.4708 74.8168C10.4581 87.8785 14.6105 100.604 22.3247 111.144L71.8797 74.8763L91.69 16.7505Z"/>
</mask>
<path d="M91.69 16.7505C79.3267 12.5368 65.9419 12.375 53.4803 16.2886C41.0188 20.2021 30.1296 27.9871 22.3951 38.5125C14.6605 49.0378 10.4834 61.7552 10.4708 74.8168C10.4581 87.8785 14.6105 100.604 22.3247 111.144L71.8797 74.8763L91.69 16.7505Z" fill="#E77D76"/>
<path d="M91.69 16.7505C79.3267 12.5368 65.9419 12.375 53.4803 16.2886C41.0188 20.2021 30.1296 27.9871 22.3951 38.5125C14.6605 49.0378 10.4834 61.7552 10.4708 74.8168C10.4581 87.8785 14.6105 100.604 22.3247 111.144L71.8797 74.8763L91.69 16.7505Z" stroke="#263885" stroke-width="4" mask="url(#path-2-outside-1_0_396)"/>
<mask id="path-3-outside-2_0_396" maskUnits="userSpaceOnUse" x="11.4533" y="-5.67057" width="83.1388" height="84.3867" fill="black">
<rect fill="white" x="11.4533" y="-5.67057" width="83.1388" height="84.3867"/>
<path d="M91.6462 16.8672C78.1696 12.2742 63.5142 12.5169 50.1971 17.5538C36.8799 22.5907 25.7322 32.1074 18.6684 44.4694L71.8768 74.8731L91.6462 16.8672Z"/>
</mask>
<path d="M91.6462 16.8672C78.1696 12.2742 63.5142 12.5169 50.1971 17.5538C36.8799 22.5907 25.7322 32.1074 18.6684 44.4694L71.8768 74.8731L91.6462 16.8672Z" fill="#F3B17D"/>
<path d="M91.6462 16.8672C78.1696 12.2742 63.5142 12.5169 50.1971 17.5538C36.8799 22.5907 25.7322 32.1074 18.6684 44.4694L71.8768 74.8731L91.6462 16.8672Z" stroke="#263885" stroke-width="4" mask="url(#path-3-outside-2_0_396)"/>
<circle cx="44.7532" cy="44.7532" r="44.7532" transform="matrix(0.322596 -0.946537 -0.946537 -0.322596 99.8008 131.672)" fill="#263883"/>
<path d="M61.0853 71.8984V70.3075L66.0072 65.2081C66.5327 64.6541 66.966 64.1688 67.3069 63.7521C67.6525 63.3307 67.9106 62.9306 68.081 62.5518C68.2515 62.1731 68.3367 61.7706 68.3367 61.3445C68.3367 60.8615 68.2231 60.4448 67.9958 60.0945C67.7685 59.7393 67.4584 59.4671 67.0654 59.2777C66.6724 59.0836 66.2297 58.9865 65.7373 58.9865C65.2165 58.9865 64.7619 59.093 64.3737 59.3061C63.9854 59.5192 63.6871 59.8198 63.4788 60.2081C63.2704 60.5963 63.1663 61.0509 63.1663 61.5717H61.0711C61.0711 60.6863 61.2747 59.9122 61.6819 59.2493C62.0891 58.5864 62.6478 58.0727 63.358 57.7081C64.0683 57.3388 64.8756 57.1541 65.7799 57.1541C66.6937 57.1541 67.4987 57.3364 68.1947 57.701C68.8954 58.0608 69.4423 58.5533 69.8353 59.1783C70.2283 59.7985 70.4248 60.4993 70.4248 61.2805C70.4248 61.8203 70.323 62.3482 70.1194 62.8643C69.9205 63.3804 69.5725 63.9557 69.0754 64.5902C68.5782 65.2199 67.8869 65.9846 67.0015 66.8842L64.1109 69.9098V70.0163H70.6592V71.8984H61.0853ZM78.8694 57.353V71.8984H76.6677V59.5547H76.5825L73.1024 61.8274V59.7251L76.7316 57.353H78.8694Z" fill="white"/>
<path d="M39.965 88.8984H38.9493L41.8868 80.8984H42.8868L45.8243 88.8984H44.8087L42.4181 82.1641H42.3556L39.965 88.8984ZM40.34 85.7734H44.4337V86.6328H40.34V85.7734ZM46.9454 91.1484V82.8984H47.8361V83.8516H47.9454C48.0131 83.7474 48.1069 83.6146 48.2267 83.4531C48.3491 83.2891 48.5236 83.1432 48.7501 83.0156C48.9793 82.8854 49.2892 82.8203 49.6798 82.8203C50.185 82.8203 50.6303 82.9466 51.0157 83.1992C51.4012 83.4518 51.7019 83.8099 51.9181 84.2734C52.1342 84.737 52.2423 85.2838 52.2423 85.9141C52.2423 86.5495 52.1342 87.1003 51.9181 87.5664C51.7019 88.0299 51.4025 88.3893 51.0197 88.6445C50.6368 88.8971 50.1954 89.0234 49.6954 89.0234C49.31 89.0234 49.0014 88.9596 48.7697 88.832C48.5379 88.7018 48.3595 88.5547 48.2345 88.3906C48.1095 88.224 48.0131 88.0859 47.9454 87.9766H47.8673V91.1484H46.9454ZM47.8517 85.8984C47.8517 86.3516 47.9181 86.7513 48.0509 87.0976C48.1837 87.4414 48.3777 87.7109 48.6329 87.9062C48.8881 88.099 49.2006 88.1953 49.5704 88.1953C49.9559 88.1953 50.2775 88.0937 50.5353 87.8906C50.7957 87.6849 50.991 87.4088 51.1212 87.0625C51.254 86.7135 51.3204 86.3255 51.3204 85.8984C51.3204 85.4766 51.2553 85.0963 51.1251 84.7578C50.9975 84.4167 50.8035 84.1471 50.5431 83.9492C50.2853 83.7487 49.9611 83.6484 49.5704 83.6484C49.1954 83.6484 48.8803 83.7435 48.6251 83.9336C48.3699 84.1211 48.1772 84.3841 48.047 84.7226C47.9168 85.0586 47.8517 85.4505 47.8517 85.8984ZM53.6486 91.1484V82.8984H54.5392V83.8516H54.6486C54.7163 83.7474 54.81 83.6146 54.9298 83.4531C55.0522 83.2891 55.2267 83.1432 55.4532 83.0156C55.6824 82.8854 55.9923 82.8203 56.3829 82.8203C56.8881 82.8203 57.3335 82.9466 57.7189 83.1992C58.1043 83.4518 58.4051 83.8099 58.6212 84.2734C58.8374 84.737 58.9454 85.2838 58.9454 85.9141C58.9454 86.5495 58.8374 87.1003 58.6212 87.5664C58.4051 88.0299 58.1056 88.3893 57.7228 88.6445C57.34 88.8971 56.8986 89.0234 56.3986 89.0234C56.0131 89.0234 55.7045 88.9596 55.4728 88.832C55.241 88.7018 55.0626 88.5547 54.9376 88.3906C54.8126 88.224 54.7163 88.0859 54.6486 87.9766H54.5704V91.1484H53.6486ZM54.5548 85.8984C54.5548 86.3516 54.6212 86.7513 54.754 87.0976C54.8868 87.4414 55.0809 87.7109 55.3361 87.9062C55.5913 88.099 55.9038 88.1953 56.2736 88.1953C56.659 88.1953 56.9806 88.0937 57.2384 87.8906C57.4988 87.6849 57.6941 87.4088 57.8243 87.0625C57.9572 86.7135 58.0236 86.3255 58.0236 85.8984C58.0236 85.4766 57.9585 85.0963 57.8282 84.7578C57.7006 84.4167 57.5066 84.1471 57.2462 83.9492C56.9884 83.7487 56.6642 83.6484 56.2736 83.6484C55.8986 83.6484 55.5835 83.7435 55.3282 83.9336C55.073 84.1211 54.8803 84.3841 54.7501 84.7226C54.6199 85.0586 54.5548 85.4505 54.5548 85.8984ZM61.2736 80.8984V88.8984H60.3517V80.8984H61.2736ZM62.962 88.8984V82.8984H63.8839V88.8984H62.962ZM63.4308 81.8984C63.2511 81.8984 63.0962 81.8372 62.9659 81.7148C62.8383 81.5924 62.7745 81.4453 62.7745 81.2734C62.7745 81.1016 62.8383 80.9544 62.9659 80.832C63.0962 80.7096 63.2511 80.6484 63.4308 80.6484C63.6105 80.6484 63.7641 80.7096 63.8917 80.832C64.0219 80.9544 64.087 81.1016 64.087 81.2734C64.087 81.4453 64.0219 81.5924 63.8917 81.7148C63.7641 81.8372 63.6105 81.8984 63.4308 81.8984ZM68.0099 89.0234C67.4474 89.0234 66.963 88.8906 66.5568 88.625C66.1505 88.3594 65.838 87.9935 65.6193 87.5273C65.4005 87.0612 65.2911 86.5286 65.2911 85.9297C65.2911 85.3203 65.4031 84.7825 65.6271 84.3164C65.8536 83.8476 66.1687 83.4818 66.5724 83.2187C66.9786 82.9531 67.4526 82.8203 67.9943 82.8203C68.4161 82.8203 68.7963 82.8984 69.1349 83.0547C69.4734 83.2109 69.7508 83.4297 69.9669 83.7109C70.1831 83.9922 70.3172 84.3203 70.3693 84.6953H69.4474C69.3771 84.4219 69.2208 84.1797 68.9786 83.9687C68.7391 83.7552 68.4161 83.6484 68.0099 83.6484C67.6505 83.6484 67.3354 83.7422 67.0646 83.9297C66.7963 84.1146 66.5867 84.3763 66.4357 84.7148C66.2872 85.0508 66.213 85.4453 66.213 85.8984C66.213 86.362 66.2859 86.7656 66.4318 87.1094C66.5802 87.4531 66.7885 87.72 67.0568 87.9101C67.3276 88.1003 67.6453 88.1953 68.0099 88.1953C68.2495 88.1953 68.4669 88.1536 68.6622 88.0703C68.8575 87.987 69.0229 87.8672 69.1583 87.7109C69.2937 87.5547 69.3901 87.3672 69.4474 87.1484H70.3693C70.3172 87.5026 70.1883 87.8216 69.9825 88.1055C69.7794 88.3867 69.5099 88.6107 69.174 88.7773C68.8406 88.9414 68.4526 89.0234 68.0099 89.0234ZM73.4825 89.0391C73.1023 89.0391 72.7573 88.9674 72.4474 88.8242C72.1375 88.6784 71.8914 88.4687 71.7091 88.1953C71.5268 87.9193 71.4357 87.5859 71.4357 87.1953C71.4357 86.8516 71.5034 86.5729 71.6388 86.3594C71.7742 86.1432 71.9552 85.974 72.1818 85.8516C72.4083 85.7292 72.6583 85.638 72.9318 85.5781C73.2078 85.5156 73.4851 85.4661 73.7638 85.4297C74.1284 85.3828 74.424 85.3476 74.6505 85.3242C74.8797 85.2982 75.0463 85.2552 75.1505 85.1953C75.2573 85.1354 75.3107 85.0312 75.3107 84.8828V84.8516C75.3107 84.4661 75.2052 84.1667 74.9943 83.9531C74.7859 83.7396 74.4695 83.6328 74.045 83.6328C73.6049 83.6328 73.2599 83.7292 73.0099 83.9219C72.7599 84.1146 72.5841 84.3203 72.4825 84.5391L71.6075 84.2266C71.7638 83.862 71.9721 83.5781 72.2325 83.375C72.4956 83.1693 72.782 83.026 73.0919 82.9453C73.4044 82.862 73.7117 82.8203 74.0138 82.8203C74.2065 82.8203 74.4279 82.8437 74.6779 82.8906C74.9305 82.9349 75.174 83.0273 75.4083 83.168C75.6453 83.3086 75.8419 83.5208 75.9982 83.8047C76.1544 84.0885 76.2325 84.4687 76.2325 84.9453V88.8984H75.3107V88.0859H75.2638C75.2013 88.2161 75.0971 88.3555 74.9513 88.5039C74.8055 88.6523 74.6115 88.7786 74.3693 88.8828C74.1271 88.987 73.8315 89.0391 73.4825 89.0391ZM73.6232 88.2109C73.9878 88.2109 74.295 88.1393 74.545 87.9961C74.7976 87.8529 74.9878 87.668 75.1154 87.4414C75.2456 87.2148 75.3107 86.9766 75.3107 86.7266V85.8828C75.2716 85.9297 75.1857 85.9726 75.0529 86.0117C74.9226 86.0482 74.7716 86.0807 74.5997 86.1094C74.4305 86.1354 74.2651 86.1588 74.1036 86.1797C73.9448 86.1979 73.8159 86.2135 73.7169 86.2266C73.4773 86.2578 73.2534 86.3086 73.045 86.3789C72.8393 86.4466 72.6726 86.5495 72.545 86.6875C72.42 86.8229 72.3575 87.0078 72.3575 87.2422C72.3575 87.5625 72.476 87.8047 72.713 87.9687C72.9526 88.1302 73.256 88.2109 73.6232 88.2109ZM80.5245 82.8984V83.6797H77.4152V82.8984H80.5245ZM78.3214 81.4609H79.2433V87.1797C79.2433 87.4401 79.281 87.6354 79.3566 87.7656C79.4347 87.8932 79.5337 87.9792 79.6534 88.0234C79.7758 88.0651 79.9047 88.0859 80.0402 88.0859C80.1417 88.0859 80.2251 88.0807 80.2902 88.0703C80.3553 88.0573 80.4073 88.0469 80.4464 88.0391L80.6339 88.8672C80.5714 88.8906 80.4842 88.9141 80.3722 88.9375C80.2602 88.9635 80.1183 88.9766 79.9464 88.9766C79.686 88.9766 79.4308 88.9206 79.1808 88.8086C78.9334 88.6966 78.7277 88.526 78.5636 88.2969C78.4021 88.0677 78.3214 87.7786 78.3214 87.4297V81.4609ZM81.9113 88.8984V82.8984H82.8331V88.8984H81.9113ZM82.38 81.8984C82.2003 81.8984 82.0454 81.8372 81.9152 81.7148C81.7876 81.5924 81.7238 81.4453 81.7238 81.2734C81.7238 81.1016 81.7876 80.9544 81.9152 80.832C82.0454 80.7096 82.2003 80.6484 82.38 80.6484C82.5597 80.6484 82.7133 80.7096 82.8409 80.832C82.9712 80.9544 83.0363 81.1016 83.0363 81.2734C83.0363 81.4453 82.9712 81.5924 82.8409 81.7148C82.7133 81.8372 82.5597 81.8984 82.38 81.8984ZM86.9591 89.0234C86.4174 89.0234 85.9422 88.8945 85.5333 88.6367C85.1271 88.3789 84.8094 88.0182 84.5802 87.5547C84.3536 87.0911 84.2404 86.5495 84.2404 85.9297C84.2404 85.3047 84.3536 84.7591 84.5802 84.293C84.8094 83.8268 85.1271 83.4648 85.5333 83.207C85.9422 82.9492 86.4174 82.8203 86.9591 82.8203C87.5008 82.8203 87.9747 82.9492 88.381 83.207C88.7898 83.4648 89.1075 83.8268 89.3341 84.293C89.5633 84.7591 89.6779 85.3047 89.6779 85.9297C89.6779 86.5495 89.5633 87.0911 89.3341 87.5547C89.1075 88.0182 88.7898 88.3789 88.381 88.6367C87.9747 88.8945 87.5008 89.0234 86.9591 89.0234ZM86.9591 88.1953C87.3706 88.1953 87.7091 88.0898 87.9747 87.8789C88.2404 87.668 88.437 87.3906 88.5646 87.0469C88.6922 86.7031 88.756 86.3307 88.756 85.9297C88.756 85.5286 88.6922 85.1549 88.5646 84.8086C88.437 84.4622 88.2404 84.1823 87.9747 83.9687C87.7091 83.7552 87.3706 83.6484 86.9591 83.6484C86.5476 83.6484 86.2091 83.7552 85.9435 83.9687C85.6779 84.1823 85.4812 84.4622 85.3536 84.8086C85.226 85.1549 85.1622 85.5286 85.1622 85.9297C85.1622 86.3307 85.226 86.7031 85.3536 87.0469C85.4812 87.3906 85.6779 87.668 85.9435 87.8789C86.2091 88.0898 86.5476 88.1953 86.9591 88.1953ZM92.007 85.2891V88.8984H91.0851V82.8984H91.9757V83.8359H92.0538C92.1945 83.5312 92.408 83.2865 92.6945 83.1016C92.9809 82.9141 93.3507 82.8203 93.8038 82.8203C94.2101 82.8203 94.5656 82.9036 94.8702 83.0703C95.1749 83.2344 95.4119 83.4844 95.5812 83.8203C95.7504 84.1536 95.8351 84.5755 95.8351 85.0859V88.8984H94.9132V85.1484C94.9132 84.6771 94.7908 84.3099 94.546 84.0469C94.3012 83.7812 93.9653 83.6484 93.5382 83.6484C93.2439 83.6484 92.9809 83.7122 92.7491 83.8398C92.52 83.9674 92.339 84.1536 92.2062 84.3984C92.0734 84.6432 92.007 84.9401 92.007 85.2891ZM101.77 84.2422L100.942 84.4766C100.889 84.3385 100.813 84.2044 100.711 84.0742C100.612 83.9414 100.477 83.832 100.305 83.7461C100.133 83.6601 99.9129 83.6172 99.6447 83.6172C99.2775 83.6172 98.9715 83.7018 98.7267 83.8711C98.4845 84.0378 98.3634 84.25 98.3634 84.5078C98.3634 84.737 98.4467 84.918 98.6134 85.0508C98.7801 85.1836 99.0405 85.2943 99.3947 85.3828L100.285 85.6016C100.822 85.7318 101.221 85.931 101.484 86.1992C101.748 86.4648 101.879 86.8073 101.879 87.2266C101.879 87.5703 101.78 87.8776 101.582 88.1484C101.387 88.4193 101.113 88.6328 100.762 88.7891C100.41 88.9453 100.001 89.0234 99.5353 89.0234C98.9233 89.0234 98.4168 88.8906 98.0157 88.625C97.6147 88.3594 97.3608 87.9713 97.254 87.4609L98.129 87.2422C98.2124 87.5651 98.3699 87.8073 98.6017 87.9687C98.8361 88.1302 99.142 88.2109 99.5197 88.2109C99.9493 88.2109 100.29 88.1198 100.543 87.9375C100.798 87.7526 100.926 87.5312 100.926 87.2734C100.926 87.0651 100.853 86.8906 100.707 86.75C100.561 86.6068 100.337 86.5 100.035 86.4297L99.0353 86.1953C98.4858 86.0651 98.0822 85.8633 97.8243 85.5898C97.5691 85.3138 97.4415 84.9687 97.4415 84.5547C97.4415 84.2161 97.5366 83.9167 97.7267 83.6562C97.9194 83.3958 98.1811 83.1914 98.5118 83.043C98.8452 82.8945 99.2228 82.8203 99.6447 82.8203C100.238 82.8203 100.705 82.9505 101.043 83.2109C101.384 83.4713 101.626 83.8151 101.77 84.2422Z" fill="white"/>
</g>
<defs>
<clipPath id="clip0_0_396">
<rect width="143" height="149" fill="white"/>
</clipPath>
</defs>
</svg>
